<svg width="40" height="40" viewBox="0 0 40 40" fill="none" xmlns="http://www.w3.org/2000/svg">
<path d="M35.9169 15.4348H31.3389C29.6362 15.4348 28.2559 16.8151 28.2559 18.5178V23.0958C28.2559 24.7985 29.6362 26.1788 31.3389 26.1788H35.9169C37.6196 26.1788 38.9999 24.7985 38.9999 23.0958V18.5178C38.9999 16.8151 37.6196 15.4348 35.9169 15.4348Z" fill="#2F81F9"/>
<path d="M23.8161 5.81185C23.8161 3.98047 22.3315 2.49585 20.5001 2.49585C18.6687 2.49585 17.1841 3.98047 17.1841 5.81185V9.92385C17.1841 11.7552 18.6687 13.2398 20.5001 13.2398C22.3315 13.2398 23.8161 11.7552 23.8161 9.92385V5.81185Z" fill="#1E6EF4"/>
<path d="M9.661 15.4348H5.083C3.38031 15.4348 2 16.8151 2 18.5178V23.0958C2 24.7985 3.38031 26.1788 5.083 26.1788H9.661C11.3637 26.1788 12.744 24.7985 12.744 23.0958V18.5178C12.744 16.8151 11.3637 15.4348 9.661 15.4348Z" fill="#2F81F9"/>
<path d="M29.9728 6.10889H10.8558C8.01761 6.10889 5.7168 8.4097 5.7168 11.2479V30.3649C5.7168 33.2031 8.01761 35.5039 10.8558 35.5039H29.9728C32.811 35.5039 35.1118 33.2031 35.1118 30.3649V11.2479C35.1118 8.4097 32.811 6.10889 29.9728 6.10889Z" fill="#93C9FF"/>
<path d="M25.508 20.467C26.7899 20.467 27.829 19.4278 27.829 18.146C27.829 16.8641 26.7899 15.825 25.508 15.825C24.2262 15.825 23.187 16.8641 23.187 18.146C23.187 19.4278 24.2262 20.467 25.508 20.467Z" fill="black"/>
<path d="M15.4919 20.467C16.7738 20.467 17.8129 19.4278 17.8129 18.146C17.8129 16.8641 16.7738 15.825 15.4919 15.825C14.21 15.825 13.1709 16.8641 13.1709 18.146C13.1709 19.4278 14.21 20.467 15.4919 20.467Z" fill="black"/>
<path d="M23.7659 27.9099H17.2339C16.3829 27.9099 15.6919 27.2189 15.6919 26.3679C15.6919 25.5169 16.3829 24.8259 17.2339 24.8259H23.7659C24.6169 24.8259 25.3079 25.5169 25.3079 26.3679C25.3079 27.2189 24.6169 27.9099 23.7659 27.9099Z" fill="white"/>
</svg>
