<svg width="64" height="64" viewBox="0 0 64 64" fill="none" xmlns="http://www.w3.org/2000/svg">
<path d="M15.1113 13.3329C15.1113 11.3692 16.7032 9.77734 18.6669 9.77734H42.6669C44.6306 9.77734 46.2224 11.3692 46.2224 13.3329V48.8885C46.2224 50.8521 44.6306 52.444 42.6669 52.444H18.6669C16.7032 52.444 15.1113 50.8521 15.1113 48.8885V13.3329Z" fill="#D9DFE6"/>
<rect x="31.1113" y="20.4443" width="8.88889" height="2.66667" rx="0.888889" fill="#96A5B5"/>
<rect x="31.1111" y="30.2217" width="8.88889" height="2.66667" rx="0.888889" fill="#96A5B5"/>
<rect x="31.1113" y="40" width="8.88889" height="2.66667" rx="0.888889" fill="#96A5B5"/>
<path d="M27.5557 19.4954L22.932 23.9995L19.5557 20.7104L21.3194 18.9923L22.932 20.5633L25.792 17.7773L27.5557 19.4954Z" fill="#328BE9"/>
<path d="M27.5557 29.2728L22.932 33.7769L19.5557 30.4878L21.3194 28.7697L22.932 30.3407L25.792 27.5547L27.5557 29.2728Z" fill="#328BE9"/>
<path d="M27.5557 39.0509L22.932 43.555L19.5557 40.266L21.3194 38.5478L22.932 40.1188L25.792 37.3328L27.5557 39.0509Z" fill="#96A4B5"/>
<path d="M37.3335 52.444V44.8172L44.9604 52.444H37.3335Z" fill="#F9C79A"/>
<path d="M37.3335 52.444V48.9808L41.0832 52.444H37.3335Z" fill="#454C53"/>
<path d="M44.9602 37.1905L47.6841 39.9144L40.0572 47.5412L37.3335 44.8172L44.9602 37.1905Z" fill="#F5B933"/>
<path d="M47.6841 39.9144L50.1353 42.3656L42.5084 49.9925L40.0572 47.5412L47.6841 39.9144Z" fill="#F5A518"/>
<path d="M50.1357 42.366L52.5872 44.8175L44.9604 52.444L42.5089 49.9929L50.1357 42.366Z" fill="#CB7F10"/>
<path d="M46.0494 36.1013L53.6763 43.7281L52.5872 44.8175L44.9602 37.1905L46.0494 36.1013Z" fill="#D4DEED"/>
<path d="M46.9579 35.1928C47.6599 34.4908 48.7981 34.4908 49.5002 35.1928L54.5847 40.2774C55.2868 40.9794 55.2868 42.1176 54.5847 42.8197L53.6768 43.7276L46.0499 36.1007L46.9579 35.1928Z" fill="#E83E54"/>
</svg>
