<svg width="64" height="64" viewBox="0 0 64 64" fill="none" xmlns="http://www.w3.org/2000/svg">
<path d="M11 11.0007C11 9.28248 12.3929 7.88959 14.1111 7.88959H30.6484C32.3666 7.88959 33.7595 9.28248 33.7595 11.0007V36.9096C33.7595 38.6278 32.3666 40.0207 30.6484 40.0207H14.1111C12.3929 40.0207 11 38.6278 11 36.9096V11.0007Z" fill="#D9DFE6"/>
<rect x="14.3481" y="12.5745" width="6.69398" height="6.69398" rx="1.55556" fill="#96A5B5"/>
<rect x="14.3481" y="25.2954" width="14.7268" height="2.0082" rx="0.777778" fill="#96A5B5"/>
<rect x="14.3481" y="28.6405" width="14.7268" height="2.0082" rx="0.777778" fill="#96A5B5"/>
<rect x="14.3481" y="31.9886" width="6.69398" height="2.0082" rx="0.777778" fill="#96A5B5"/>
<rect x="35.7678" y="41.8259" width="5.39057" height="14.0155" transform="rotate(-45 35.7678 41.8259)" fill="#D9D9D9"/>
<rect x="41.1045" y="48.6857" width="7.5468" height="10.2421" rx="1.55556" transform="rotate(-45 41.1045 48.6857)" fill="#444236"/>
<circle cx="31.4163" cy="32.9934" r="13.7227" fill="#444236"/>
<g clip-path="url(#clip0_40007405_16667)">
<circle cx="33.2044" cy="32.992" r="12.8333" fill="#6EC4DB"/>
<g opacity="0.5">
<path d="M3.26074 -5.27524C3.26074 -6.99346 4.65363 -8.38635 6.37185 -8.38635H45.2607C46.979 -8.38635 48.3719 -6.99346 48.3719 -5.27524V52.1888C48.3719 53.907 46.979 55.2999 45.2607 55.2999H6.37186C4.65364 55.2999 3.26074 53.907 3.26074 52.1888V-5.27524Z" fill="#D9DFE6"/>
<rect x="14.9275" y="25.0585" width="21.7778" height="3.88889" rx="0.777778" fill="#96A5B5"/>
<rect x="14.9275" y="32.0585" width="21.7778" height="3.88889" rx="0.777778" fill="#96A5B5"/>
<rect x="14.9275" y="38.4626" width="13.268" height="3.98039" rx="0.777778" fill="#96A5B5"/>
</g>
</g>
<defs>
<clipPath id="clip0_40007405_16667">
<rect x="20.3711" y="21.947" width="22.0901" height="22.0901" rx="11.0451" fill="white"/>
</clipPath>
</defs>
</svg>
