<svg width="28" height="28" viewBox="0 0 28 28" fill="none" xmlns="http://www.w3.org/2000/svg">
<path d="M26.6004 19.6029V8.3973C26.6004 6.8524 25.3481 5.6001 23.8039 5.6001H4.19689C2.65199 5.6001 1.40039 6.8524 1.40039 8.3973V19.6036C1.40039 21.1485 2.65269 22.4008 4.19689 22.4008H23.8032C25.3481 22.4008 26.5997 21.1485 26.5997 19.6036L26.6004 19.6029ZM17.576 16.3297C16.26 18.2596 13.5909 18.7811 11.6162 17.4945C9.64149 16.2079 9.10809 13.6004 10.4248 11.6705C10.4087 11.6929 10.394 11.716 10.3793 11.7384C10.394 11.7153 10.4094 11.6929 10.4248 11.6705C11.7408 9.7406 14.4099 9.2191 16.3846 10.505C18.3593 11.7916 18.8927 14.3991 17.576 16.3297Z" fill="#E3E7EA"/>
<path d="M18.7676 8.36987L19.8603 9.97147L19.2646 10.36L18.1719 8.75767L18.7676 8.36987Z" fill="black"/>
<path d="M20.0586 10.2625L21.1513 11.8641L20.5556 12.2526L19.4629 10.651L20.0586 10.2625Z" fill="black"/>
<path d="M19.6611 7.7876L22.0446 11.2827L21.4489 11.6705L19.0654 8.1761L19.6611 7.7876Z" fill="black"/>
<path d="M20.5557 7.20508L21.6484 8.80668L21.0527 9.19448L19.96 7.59358L20.5557 7.20508Z" fill="black"/>
<path d="M21.8467 9.0979L22.9387 10.6995L22.343 11.088L21.251 9.4864L21.8467 9.0979Z" fill="black"/>
<path d="M7.44433 15.7473L9.82783 19.2424L9.23213 19.6302L6.84863 16.1358L7.44433 15.7473Z" fill="black"/>
<path d="M6.5498 16.3293L7.6418 17.9316L7.0461 18.3194L5.9541 16.7178L6.5498 16.3293Z" fill="black"/>
<path d="M7.84179 18.2224L8.93449 19.824L8.33879 20.2125L7.24609 18.6109L7.84179 18.2224Z" fill="black"/>
<path d="M5.65625 16.9119L8.03975 20.407L7.44405 20.7955L5.06055 17.3004L5.65625 16.9119Z" fill="black"/>
<path d="M6.84863 11.8643L9.23213 8.36987L9.82783 8.75837L7.44433 12.2528L6.84863 11.8643Z" fill="black"/>
<path d="M5.9541 11.2827L8.3376 7.7876L8.9333 8.1761L6.5498 11.6705L5.9541 11.2827Z" fill="black"/>
<path d="M5.06055 10.6995L7.44405 7.20508L8.03975 7.59358L5.65625 11.088L5.06055 10.6995Z" fill="black"/>
<path d="M18.1719 19.2422L19.2646 17.6406L19.8603 18.0284L18.7676 19.63L18.1719 19.2422Z" fill="black"/>
<path d="M19.4629 17.3496L20.5556 15.7473L21.1513 16.1358L20.0586 17.7374L19.4629 17.3496Z" fill="black"/>
<path d="M19.0654 19.824L20.1581 18.2224L20.7538 18.6109L19.6611 20.2125L19.0654 19.824Z" fill="black"/>
<path d="M20.3564 17.9316L21.4491 16.3293L22.0448 16.7178L20.9528 18.3194L20.3564 17.9316Z" fill="black"/>
<path d="M19.96 20.407L21.0527 18.8054L21.6484 19.1932L20.5557 20.7955L19.96 20.407Z" fill="black"/>
<path d="M21.251 18.5135L22.343 16.9119L22.9387 17.3004L21.8467 18.902L21.251 18.5135Z" fill="black"/>
<path d="M16.3845 10.5056C14.4098 9.21896 11.7407 9.74046 10.4247 11.6711C9.76605 12.6357 10.0334 13.9398 11.0204 14.5831C12.0081 15.2264 13.3416 14.9653 14.0003 14.0007C14.6583 13.0361 15.9925 12.775 16.9795 13.4183C17.9672 14.0616 18.2339 15.365 17.5752 16.3303C18.8919 14.3997 18.3592 11.7929 16.3845 10.5056Z" fill="#C60038"/>
<path d="M16.9794 13.4179C15.9917 12.7746 14.6582 13.035 14.0002 14.0003C13.3415 14.9649 12.0073 15.226 11.0203 14.5827C10.0326 13.9394 9.76586 12.6353 10.4246 11.6707C9.10786 13.6006 9.64126 16.2081 11.616 17.4947C13.5907 18.7813 16.2598 18.2598 17.5758 16.3299C18.2345 15.3646 17.9671 14.0612 16.9794 13.4179Z" fill="#243679"/>
</svg>
