<svg width="28" height="28" viewBox="0 0 28 28" fill="none" xmlns="http://www.w3.org/2000/svg">
<path d="M23.8004 5.6001H4.20039C2.65399 5.6001 1.40039 6.8537 1.40039 8.4001V19.6001C1.40039 21.1465 2.65399 22.4001 4.20039 22.4001H23.8004C25.3468 22.4001 26.6004 21.1465 26.6004 19.6001V8.4001C26.6004 6.8537 25.3468 5.6001 23.8004 5.6001Z" fill="#E3E7EA"/>
<path d="M15.7733 14.0001H26.5995V8.3973C26.5995 6.8524 25.3472 5.6001 23.803 5.6001H4.19596C3.53656 5.6001 2.93806 5.8381 2.45996 6.2196L15.7733 14.0001Z" fill="#2D3B9D"/>
<path d="M26.5995 19.6028V14H15.7733L2.45996 21.7805C2.93806 22.1627 3.53656 22.4 4.19596 22.4H23.8023C25.3472 22.4 26.5995 21.1477 26.5995 19.6028Z" fill="#CF002E"/>
<path d="M3.3418 20.7842L2.7027 20.4048L2.1567 20.9123L2.3135 20.1773L1.6709 19.8049L2.4066 19.7293L2.555 18.9922L2.8532 19.6817L3.5882 19.5977L3.0366 20.0989L3.3418 20.7842Z" fill="#F9CF00"/>
<path d="M5.27845 12.48L4.74015 11.5399L4.43075 11.5042L5.16715 12.5689L5.27845 12.48ZM4.86055 12.9098L3.73005 12.025L3.68945 11.5098L4.14655 11.4937L5.08175 12.6578L4.86055 12.9105V12.9098ZM4.68905 13.1128L3.75805 12.578L3.71885 12.2644L4.77515 12.9994L4.68905 13.1128Z" fill="#F9CF00"/>
<path d="M6.60903 12.2867L6.89043 11.2374L6.69863 10.9882L6.46973 12.2692L6.60903 12.2867ZM6.01473 12.2867L5.84113 10.8454L6.17363 10.4541L6.50613 10.7747L6.34723 12.2692L6.01473 12.2867ZM5.75223 12.3042L5.47363 11.2542L5.66613 11.005L5.89223 12.2867L5.75223 12.3042Z" fill="#F9CF00"/>
<path d="M7.68823 13.1329L8.62623 12.61L8.66963 12.2971L7.60423 13.0181L7.68893 13.1329H7.68823ZM7.27593 12.6968L8.17613 11.5705L8.68363 11.5425L8.68783 12.008L7.52023 12.9285L7.27663 12.6975L7.27593 12.6968ZM7.08203 12.5169L7.63153 11.5845L7.94163 11.553L7.19193 12.6079L7.08203 12.5169Z" fill="#F9CF00"/>
<path d="M7.85497 14.4477L8.88677 14.734L9.13177 14.5387L7.87247 14.3056L7.85427 14.4484L7.85497 14.4477ZM7.85637 13.8422L9.27317 13.6672L9.65747 14.0053L9.34247 14.3427L7.87317 14.1803L7.85637 13.8422ZM7.83887 13.5755L8.87137 13.292L9.11567 13.488L7.85637 13.7169L7.83887 13.5755Z" fill="#F9CF00"/>
<path d="M7.07031 15.5169L7.61211 16.4542L7.92221 16.4885L7.18091 15.4273L7.07031 15.5169ZM7.48541 15.085L8.62081 15.9649L8.66351 16.4801L8.20641 16.4983L7.26631 15.3384L7.48541 15.085ZM7.65621 14.8813L8.58931 15.4112L8.62991 15.7255L7.57081 14.9954L7.65621 14.8813Z" fill="#F9CF00"/>
<path d="M5.7437 15.7172L5.4707 16.7686L5.6639 17.0171L5.8837 15.734L5.7437 15.7172ZM6.3387 15.7137L6.5214 17.1536L6.1917 17.547L5.8571 17.2292L6.0062 15.7333L6.3387 15.7137ZM6.6005 15.6941L6.8861 16.742L6.6957 16.9919L6.4612 15.7123L6.6005 15.6941Z" fill="#F9CF00"/>
<path d="M4.66722 14.8931L3.73762 15.4307L3.69982 15.745L4.75332 15.0065L4.66722 14.8931ZM5.08582 15.3222L4.20452 16.4639L3.69702 16.4996L3.68652 16.0341L4.83942 15.0947L5.08582 15.3222ZM5.28322 15.4986L4.74842 16.4408L4.43902 16.4772L5.17192 15.4104L5.28322 15.4993V15.4986Z" fill="#F9CF00"/>
<path d="M4.48259 13.5657L3.44939 13.2871L3.20579 13.4838L4.46579 13.7078L4.48259 13.5657ZM4.48609 14.1705L3.07069 14.3567L2.68359 14.0214L2.99649 13.6812L4.46649 13.8331L4.48609 14.1705ZM4.50569 14.4379L3.47529 14.7277L3.22959 14.5338L4.48749 14.2951L4.50639 14.4379H4.50569Z" fill="#F9CF00"/>
<path d="M6.17031 12.2285C7.13211 12.2285 7.91261 13.0216 7.91261 14.0002C7.91261 14.9788 7.13211 15.7726 6.17031 15.7726C5.20851 15.7726 4.42871 14.9788 4.42871 14.0002C4.42871 13.0216 5.20851 12.2285 6.17031 12.2285Z" fill="#F9CF00"/>
<path d="M12.1645 14.608L12.602 14.0011L12.1631 13.3949L12.8652 13.6315L13.2964 13.019L13.2929 13.7715L13.9978 13.9997L13.2929 14.2293L13.2985 14.9818L12.8666 14.3707L12.1645 14.608Z" fill="#F9CF00"/>
<path d="M3.3418 7.0324L2.7027 7.4118L2.1567 6.9043L2.3135 7.64L1.6709 8.0124L2.4066 8.0873L2.555 8.8244L2.8532 8.1356L3.5882 8.2189L3.0366 7.7184L3.3418 7.0324Z" fill="#F9CF00"/>
</svg>
