<svg width="28" height="28" viewBox="0 0 28 28" fill="none" xmlns="http://www.w3.org/2000/svg">
<path d="M26.6004 19.6029V8.3973C26.6004 6.8524 25.3481 5.6001 23.8039 5.6001H4.19689C2.65199 5.6001 1.40039 6.8524 1.40039 8.3973V19.6036C1.40039 21.1485 2.65269 22.4008 4.19689 22.4008H23.8032C25.3481 22.4008 26.5997 21.1485 26.5997 19.6036L26.6004 19.6029Z" fill="#E3E7EA"/>
<path d="M14.0002 8.95996C11.1995 8.95996 8.92871 11.2168 8.92871 14C8.92871 16.7832 11.1988 19.04 14.0002 19.04C16.8016 19.04 19.071 16.7832 19.071 14C19.071 11.2168 16.8009 8.95996 14.0002 8.95996Z" fill="#BD001A"/>
</svg>
