<svg width="28" height="28" viewBox="0 0 28 28" fill="none" xmlns="http://www.w3.org/2000/svg">
<path d="M26.6004 19.6028V8.39721C26.6004 6.85231 25.3481 5.60001 23.8039 5.60001H4.19689C2.65199 5.60001 1.40039 6.85231 1.40039 8.39721V19.6035C1.40039 21.1484 2.65269 22.4007 4.19689 22.4007H23.8032C25.3481 22.4007 26.5997 21.1484 26.5997 19.6035L26.6004 19.6028ZM17.576 16.3296C16.26 18.2595 13.5909 18.781 11.6162 17.4944C9.64149 16.2078 9.10809 13.6003 10.4248 11.6704C10.4087 11.6928 10.394 11.7159 10.3793 11.7383C10.394 11.7152 10.4094 11.6928 10.4248 11.6704C11.7408 9.74051 14.4099 9.21901 16.3846 10.5049C18.3593 11.7915 18.8927 14.399 17.576 16.3296Z" fill="#E3E7EA"/>
<path d="M18.7676 8.36992L19.8603 9.97152L19.2646 10.36L18.1719 8.75772L18.7676 8.36992Z" fill="black"/>
<path d="M20.0586 10.2626L21.1513 11.8642L20.5556 12.2527L19.4629 10.6511L20.0586 10.2626Z" fill="black"/>
<path d="M19.6611 7.78751L22.0446 11.2826L21.4489 11.6704L19.0654 8.17601L19.6611 7.78751Z" fill="black"/>
<path d="M20.5557 7.20508L21.6484 8.80668L21.0527 9.19448L19.96 7.59358L20.5557 7.20508Z" fill="black"/>
<path d="M21.8467 9.09795L22.9387 10.6995L22.343 11.088L21.251 9.48645L21.8467 9.09795Z" fill="black"/>
<path d="M7.44433 15.7473L9.82783 19.2424L9.23213 19.6302L6.84863 16.1358L7.44433 15.7473Z" fill="black"/>
<path d="M6.5498 16.3295L7.6418 17.9318L7.0461 18.3196L5.9541 16.718L6.5498 16.3295Z" fill="black"/>
<path d="M7.84179 18.2223L8.93449 19.8239L8.33879 20.2124L7.24609 18.6108L7.84179 18.2223Z" fill="black"/>
<path d="M5.65625 16.9119L8.03975 20.407L7.44405 20.7955L5.06055 17.3004L5.65625 16.9119Z" fill="black"/>
<path d="M6.84863 11.8643L9.23213 8.36992L9.82783 8.75842L7.44433 12.2528L6.84863 11.8643Z" fill="black"/>
<path d="M5.9541 11.2826L8.3376 7.78751L8.9333 8.17601L6.5498 11.6704L5.9541 11.2826Z" fill="black"/>
<path d="M5.06055 10.6995L7.44405 7.20508L8.03975 7.59358L5.65625 11.088L5.06055 10.6995Z" fill="black"/>
<path d="M18.1719 19.2422L19.2646 17.6406L19.8603 18.0284L18.7676 19.63L18.1719 19.2422Z" fill="black"/>
<path d="M19.4629 17.3496L20.5556 15.7473L21.1513 16.1358L20.0586 17.7374L19.4629 17.3496Z" fill="black"/>
<path d="M19.0654 19.8239L20.1581 18.2223L20.7538 18.6108L19.6611 20.2124L19.0654 19.8239Z" fill="black"/>
<path d="M20.3564 17.9318L21.4491 16.3295L22.0448 16.718L20.9528 18.3196L20.3564 17.9318Z" fill="black"/>
<path d="M19.96 20.407L21.0527 18.8054L21.6484 19.1932L20.5557 20.7955L19.96 20.407Z" fill="black"/>
<path d="M21.251 18.5135L22.343 16.9119L22.9387 17.3004L21.8467 18.902L21.251 18.5135Z" fill="black"/>
<path d="M16.3845 10.5055C14.4098 9.21893 11.7407 9.74043 10.4247 11.671C9.76605 12.6356 10.0334 13.9397 11.0204 14.583C12.0081 15.2263 13.3416 14.9652 14.0003 14.0006C14.6583 13.036 15.9925 12.7749 16.9795 13.4182C17.9672 14.0615 18.2339 15.3649 17.5752 16.3302C18.8919 14.3996 18.3592 11.7928 16.3845 10.5055Z" fill="#C60038"/>
<path d="M16.9794 13.4177C15.9917 12.7744 14.6582 13.0348 14.0002 14.0001C13.3415 14.9647 12.0073 15.2258 11.0203 14.5825C10.0326 13.9392 9.76586 12.6351 10.4246 11.6705C9.10786 13.6004 9.64126 16.2079 11.616 17.4945C13.5907 18.7811 16.2598 18.2596 17.5758 16.3297C18.2345 15.3644 17.9671 14.061 16.9794 13.4177Z" fill="#243679"/>
</svg>
