<svg width="28" height="28" viewBox="0 0 28 28" fill="none" xmlns="http://www.w3.org/2000/svg">
<path d="M23.8004 5.6001H4.20039C2.65399 5.6001 1.40039 6.8537 1.40039 8.4001V19.6001C1.40039 21.1465 2.65399 22.4001 4.20039 22.4001H23.8004C25.3468 22.4001 26.6004 21.1465 26.6004 19.6001V8.4001C26.6004 6.8537 25.3468 5.6001 23.8004 5.6001Z" fill="#DE001B"/>
<path d="M3.21213 11.8861L3.71403 10.358L2.39453 9.41088L4.02833 9.40738L4.53793 7.88208L5.04613 9.40808L6.68063 9.41298L5.35973 10.3587L5.86093 11.8868L4.53653 10.946L3.21213 11.8861Z" fill="#FADD00"/>
<path d="M7.76837 12.7121L8.31997 12.9298L8.70287 12.4832L8.66297 13.0656L9.21317 13.2861L8.63707 13.4282L8.59367 14.0106L8.27797 13.5157L7.70117 13.6557L8.08197 13.2077L7.76837 12.7121Z" fill="#FADD00"/>
<path d="M10.7538 9.77636L10.1679 9.67626L9.88725 10.1908L9.80395 9.61326L9.21875 9.50966L9.75215 9.25346L9.67095 8.67456L10.0846 9.09386L10.6201 8.83906L10.3415 9.35566L10.7538 9.77636Z" fill="#FADD00"/>
<path d="M9.51039 12.392L9.69309 11.8362L9.21289 11.4918L9.80789 11.4904L9.99269 10.936L10.1775 11.4911L10.7718 11.4925L10.2916 11.8362L10.4736 12.392L9.99269 12.0497L9.51039 12.392Z" fill="#FADD00"/>
<path d="M7.79729 7.31781L8.33699 7.56351L8.74299 7.13721L8.67229 7.71681L9.20989 7.96531L8.62679 8.07801L8.55259 8.65691L8.26349 8.14661L7.67969 8.25651L8.08429 7.82881L7.79729 7.31781Z" fill="#FADD00"/>
</svg>
