<svg width="28" height="28" viewBox="0 0 28 28" fill="none" xmlns="http://www.w3.org/2000/svg">
<path d="M1.84668 21.1079C1.84668 21.1079 1.85018 21.1121 1.85158 21.1142C1.88588 21.1674 1.92578 21.2171 1.96358 21.2675C2.02028 21.3438 2.08048 21.4166 2.14418 21.4866C2.18478 21.5307 2.22328 21.5762 2.26668 21.6175C2.36748 21.7148 2.47668 21.8037 2.59078 21.8849C2.62998 21.9129 2.67128 21.9374 2.71188 21.9633C2.82178 22.0333 2.93588 22.0956 3.05558 22.1502C3.08078 22.1614 3.10458 22.1754 3.12978 22.1859C3.27538 22.2468 3.42868 22.2923 3.58618 22.3273C3.62188 22.3357 3.65828 22.342 3.69468 22.349C3.85848 22.3791 4.02508 22.4001 4.19728 22.4001H23.8036C23.9758 22.4001 24.1431 22.3791 24.3062 22.349C24.3426 22.342 24.379 22.3357 24.4147 22.3273C24.5722 22.2916 24.7255 22.2468 24.8711 22.1859C24.8963 22.1754 24.9201 22.1614 24.9453 22.1502C25.065 22.0963 25.1791 22.0333 25.289 21.9633C25.3296 21.9374 25.3709 21.9129 25.4101 21.8849C25.5249 21.8037 25.6334 21.7148 25.7342 21.6175C25.7769 21.5762 25.8161 21.5307 25.8567 21.4866C25.9204 21.4166 25.9806 21.3438 26.0373 21.2675C26.0751 21.2164 26.115 21.1674 26.1493 21.1142C26.1507 21.1121 26.1528 21.11 26.1542 21.1079H1.84668Z" fill="#DE001B"/>
<path d="M1.40039 19.6V19.6028C1.40039 19.6756 1.41649 19.7442 1.42209 19.8149H26.5794C26.585 19.7435 26.6011 19.6756 26.6011 19.6028V18.5227H1.40039V19.6Z" fill="#DE001B"/>
<path d="M26.6004 15.939H1.40039V17.2312H26.6004V15.939Z" fill="#DE001B"/>
<path d="M26.6008 13.3538H14.1709V14.646H26.6008V13.3538Z" fill="#DE001B"/>
<path d="M26.6008 10.7688H14.1709V12.061H26.6008V10.7688Z" fill="#DE001B"/>
<path d="M26.5791 8.18457H14.1709V9.47677H26.6008V8.39737C26.6008 8.32457 26.5847 8.25527 26.5791 8.18457Z" fill="#DE001B"/>
<path d="M26.1535 6.89226H26.1549C26.1549 6.89226 26.1514 6.88807 26.15 6.88527C26.1157 6.83207 26.0758 6.78307 26.0387 6.73267C25.982 6.65637 25.9211 6.58287 25.8567 6.51217C25.8168 6.46877 25.7783 6.42397 25.7356 6.38267C25.6341 6.28537 25.5256 6.19576 25.4108 6.11456C25.3716 6.08726 25.331 6.06276 25.2904 6.03686C25.1798 5.96686 25.065 5.90387 24.9446 5.84927C24.9201 5.83807 24.897 5.82477 24.8718 5.81427C24.7255 5.75337 24.5722 5.70786 24.4147 5.67216C24.379 5.66376 24.3426 5.65746 24.3062 5.65046C24.1424 5.62036 23.9758 5.59937 23.8036 5.59937H14.1709V6.89157L26.1535 6.89226Z" fill="#DE001B"/>
<path d="M14.1702 13.354V5.6001H4.19661C4.02441 5.6001 3.85711 5.6211 3.69401 5.6512C3.65761 5.6582 3.62121 5.6645 3.58551 5.6729C3.42801 5.7086 3.27471 5.7534 3.12841 5.815C3.10321 5.8255 3.08011 5.8388 3.05561 5.85C2.93521 5.9046 2.82041 5.9676 2.70981 6.0376C2.66921 6.0635 2.62861 6.088 2.58941 6.1153C2.47461 6.1972 2.36541 6.2861 2.26461 6.3834C2.22191 6.4247 2.18341 6.4695 2.14351 6.5129C2.07911 6.5836 2.01891 6.6564 1.96151 6.7334C1.92371 6.7845 1.88451 6.8328 1.85021 6.886C1.84881 6.8881 1.84671 6.8902 1.84531 6.893C1.77811 6.9973 1.72071 7.1072 1.66891 7.2206C1.63391 7.2976 1.60241 7.3767 1.57441 7.4572C1.55971 7.5006 1.54641 7.5447 1.53381 7.5888C1.47851 7.7778 1.43861 7.9738 1.42251 8.1768C1.42251 8.1796 1.42181 8.1824 1.42111 8.1852C1.41551 8.2566 1.39941 8.3245 1.39941 8.3973V13.354V14.6469H14.1695V13.3547L14.1702 13.354ZM2.69581 13.5318L2.41021 13.3204L2.12461 13.5318L2.23381 13.1902L1.94821 12.9788H2.30101L2.41021 12.6372L2.51941 12.9788H2.87221L2.58661 13.1902L2.69581 13.5318ZM2.58661 11.6803L2.69581 12.0219L2.41021 11.8112L2.12461 12.0219L2.23381 11.6803L1.94821 11.4689H2.30101L2.41021 11.1273L2.51941 11.4689H2.87221L2.58661 11.6803ZM2.58661 10.1697L2.69581 10.512L2.41021 10.3006L2.12461 10.512L2.23381 10.1697L1.94821 9.959H2.30101L2.41021 9.6167L2.51941 9.959H2.87221L2.58661 10.1697ZM2.58661 8.6598L2.69581 9.0021L2.41021 8.7907L2.12461 9.0021L2.23381 8.6598L1.94821 8.4484H2.30101L2.41021 8.1061L2.51941 8.4484H2.87221L2.58661 8.6598ZM2.58661 7.1499L2.69581 7.4922L2.41021 7.2808L2.12461 7.4922L2.23381 7.1499L1.94821 6.9385H2.30101L2.41021 6.5962L2.51941 6.9385H2.87221L2.58661 7.1499ZM3.72971 12.8171L3.44341 12.6064L3.15781 12.8171L3.26701 12.4755L2.98141 12.2641H3.33491L3.44411 11.9225L3.55331 12.2641H3.90681L3.62121 12.4755L3.72971 12.8171ZM3.62051 10.9656L3.72971 11.3072L3.44341 11.0958L3.15781 11.3072L3.26701 10.9656L2.98141 10.7542H3.33491L3.44411 10.4126L3.55331 10.7542H3.90681L3.62051 10.9656ZM3.62051 9.4557L3.72971 9.7973L3.44341 9.5866L3.15781 9.7973L3.26701 9.4557L2.98141 9.2443H3.33491L3.44411 8.9027L3.55331 9.2443H3.90681L3.62051 9.4557ZM3.62051 7.9458L3.72971 8.2874L3.44341 8.0767L3.15781 8.2874L3.26701 7.9458L2.98141 7.7344H3.33491L3.44411 7.3928L3.55331 7.7344H3.90681L3.62051 7.9458ZM4.77691 13.5318L4.49131 13.3204L4.20501 13.5318L4.31421 13.1902L4.02861 12.9788H4.38211L4.49131 12.6372L4.60051 12.9788H4.95401L4.66841 13.1902L4.77691 13.5318ZM4.66771 11.6803L4.77691 12.0219L4.49131 11.8112L4.20501 12.0219L4.31421 11.6803L4.02861 11.4689H4.38211L4.49131 11.1273L4.60051 11.4689H4.95401L4.66771 11.6803ZM4.66771 10.1697L4.77691 10.512L4.49131 10.3006L4.20501 10.512L4.31421 10.1697L4.02861 9.959H4.38211L4.49131 9.6167L4.60051 9.959H4.95401L4.66771 10.1697ZM4.66771 8.6598L4.77691 9.0021L4.49131 8.7907L4.20501 9.0021L4.31421 8.6598L4.02861 8.4484H4.38211L4.49131 8.1061L4.60051 8.4484H4.95401L4.66771 8.6598ZM4.66771 7.1499L4.77691 7.4922L4.49131 7.2808L4.20501 7.4922L4.31421 7.1499L4.02861 6.9385H4.38211L4.49131 6.5962L4.60051 6.9385H4.95401L4.66771 7.1499ZM5.81081 12.8171L5.52521 12.6064L5.23961 12.8171L5.34881 12.4755L5.06321 12.2641H5.41671L5.52591 11.9225L5.63511 12.2641H5.98861L5.70301 12.4755L5.81221 12.8171H5.81081ZM5.70161 10.9656L5.81081 11.3072L5.52521 11.0958L5.23961 11.3072L5.34881 10.9656L5.06321 10.7542H5.41671L5.52591 10.4126L5.63511 10.7542H5.98861L5.70301 10.9656H5.70161ZM5.70161 9.4557L5.81081 9.7973L5.52521 9.5866L5.23961 9.7973L5.34881 9.4557L5.06321 9.2443H5.41671L5.52591 8.9027L5.63511 9.2443H5.98861L5.70301 9.4557H5.70161ZM5.70161 7.9458L5.81081 8.2874L5.52521 8.0767L5.23961 8.2874L5.34881 7.9458L5.06321 7.7344H5.41671L5.52591 7.3928L5.63511 7.7344H5.98861L5.70301 7.9458H5.70161ZM6.85731 13.5318L6.57171 13.3204L6.28611 13.5318L6.39531 13.1902L6.10971 12.9788H6.46321L6.57241 12.6372L6.68161 12.9788H7.03511L6.74951 13.1902L6.85871 13.5318H6.85731ZM6.74811 11.6803L6.85731 12.0219L6.57171 11.8112L6.28611 12.0219L6.39531 11.6803L6.10971 11.4689H6.46321L6.57241 11.1273L6.68161 11.4689H7.03511L6.74951 11.6803H6.74811ZM6.74811 10.1697L6.85731 10.512L6.57171 10.3006L6.28611 10.512L6.39531 10.1697L6.10971 9.959H6.46321L6.57241 9.6167L6.68161 9.959H7.03511L6.74951 10.1697H6.74811ZM6.74811 8.6598L6.85731 9.0021L6.57171 8.7907L6.28611 9.0021L6.39531 8.6598L6.10971 8.4484H6.46321L6.57241 8.1061L6.68161 8.4484H7.03511L6.74951 8.6598H6.74811ZM6.74811 7.1499L6.85731 7.4922L6.57171 7.2808L6.28611 7.4922L6.39531 7.1499L6.10971 6.9385H6.46321L6.57241 6.5962L6.68161 6.9385H7.03511L6.74951 7.1499H6.74811ZM7.89121 12.8171L7.60561 12.6064L7.32001 12.8171L7.42921 12.4755L7.14361 12.2641H7.49641L7.60561 11.9225L7.71481 12.2641H8.06761L7.78201 12.4755L7.89121 12.8171ZM7.78201 10.9656L7.89121 11.3072L7.60561 11.0958L7.32001 11.3072L7.42921 10.9656L7.14361 10.7542H7.49641L7.60561 10.4126L7.71481 10.7542H8.06761L7.78201 10.9656ZM7.78201 9.4557L7.89121 9.7973L7.60561 9.5866L7.32001 9.7973L7.42921 9.4557L7.14361 9.2443H7.49641L7.60561 8.9027L7.71481 9.2443H8.06761L7.78201 9.4557ZM7.78201 7.9458L7.89121 8.2874L7.60561 8.0767L7.32001 8.2874L7.42921 7.9458L7.14361 7.7344H7.49641L7.60561 7.3928L7.71481 7.7344H8.06761L7.78201 7.9458ZM8.93841 13.5318L8.65281 13.3204L8.36721 13.5318L8.47641 13.1902L8.19081 12.9788H8.54431L8.65351 12.6372L8.76271 12.9788H9.11621L8.83061 13.1902L8.93981 13.5318H8.93841ZM8.82921 11.6803L8.93841 12.0219L8.65281 11.8112L8.36721 12.0219L8.47641 11.6803L8.19081 11.4689H8.54431L8.65351 11.1273L8.76271 11.4689H9.11621L8.83061 11.6803H8.82921ZM8.82921 10.1697L8.93841 10.512L8.65281 10.3006L8.36721 10.512L8.47641 10.1697L8.19081 9.959H8.54431L8.65351 9.6167L8.76271 9.959H9.11621L8.83061 10.1697H8.82921ZM8.82921 8.6598L8.93841 9.0021L8.65281 8.7907L8.36721 9.0021L8.47641 8.6598L8.19081 8.4484H8.54431L8.65351 8.1061L8.76271 8.4484H9.11621L8.83061 8.6598H8.82921ZM8.82921 7.1499L8.93841 7.4922L8.65281 7.2808L8.36721 7.4922L8.47641 7.1499L8.19081 6.9385H8.54431L8.65351 6.5962L8.76271 6.9385H9.11621L8.83061 7.1499H8.82921ZM9.97231 12.8171L9.68671 12.6064L9.40041 12.8171L9.50961 12.4755L9.22401 12.2641H9.57751L9.68671 11.9225L9.79591 12.2641H10.1494L9.86381 12.4755L9.97231 12.8171ZM9.86311 10.9656L9.97231 11.3072L9.68671 11.0958L9.40041 11.3072L9.50961 10.9656L9.22401 10.7542H9.57751L9.68671 10.4126L9.79591 10.7542H10.1494L9.86311 10.9656ZM9.86311 9.4557L9.97231 9.7973L9.68671 9.5866L9.40041 9.7973L9.50961 9.4557L9.22401 9.2443H9.57751L9.68671 8.9027L9.79591 9.2443H10.1494L9.86311 9.4557ZM9.86311 7.9458L9.97231 8.2874L9.68671 8.0767L9.40041 8.2874L9.50961 7.9458L9.22401 7.7344H9.57751L9.68671 7.3928L9.79591 7.7344H10.1494L9.86311 7.9458ZM11.0195 13.5318L10.7339 13.3204L10.4483 13.5318L10.5575 13.1902L10.2719 12.9788H10.6254L10.7346 12.6372L10.8438 12.9788H11.1973L10.9117 13.1902L11.0209 13.5318H11.0195ZM10.9103 11.6803L11.0195 12.0219L10.7339 11.8112L10.4483 12.0219L10.5575 11.6803L10.2719 11.4689H10.6254L10.7346 11.1273L10.8438 11.4689H11.1973L10.9117 11.6803H10.9103ZM10.9103 10.1697L11.0195 10.512L10.7339 10.3006L10.4483 10.512L10.5575 10.1697L10.2719 9.959H10.6254L10.7346 9.6167L10.8438 9.959H11.1973L10.9117 10.1697H10.9103ZM10.9103 8.6598L11.0195 9.0021L10.7339 8.7907L10.4483 9.0021L10.5575 8.6598L10.2719 8.4484H10.6254L10.7346 8.1061L10.8438 8.4484H11.1973L10.9117 8.6598H10.9103ZM10.9103 7.1499L11.0195 7.4922L10.7339 7.2808L10.4483 7.4922L10.5575 7.1499L10.2719 6.9385H10.6254L10.7346 6.5962L10.8438 6.9385H11.1973L10.9117 7.1499H10.9103ZM12.0527 12.8171L11.7671 12.6064L11.4815 12.8171L11.5907 12.4755L11.3051 12.2641H11.6586L11.7678 11.9225L11.877 12.2641H12.2305L11.9449 12.4755L12.0541 12.8171H12.0527ZM11.9435 10.9656L12.0527 11.3072L11.7671 11.0958L11.4815 11.3072L11.5907 10.9656L11.3051 10.7542H11.6586L11.7678 10.4126L11.877 10.7542H12.2305L11.9449 10.9656H11.9435ZM11.9435 9.4557L12.0527 9.7973L11.7671 9.5866L11.4815 9.7973L11.5907 9.4557L11.3051 9.2443H11.6586L11.7678 8.9027L11.877 9.2443H12.2305L11.9449 9.4557H11.9435ZM11.9435 7.9458L12.0527 8.2874L11.7671 8.0767L11.4815 8.2874L11.5907 7.9458L11.3051 7.7344H11.6586L11.7678 7.3928L11.877 7.7344H12.2305L11.9449 7.9458H11.9435ZM13.0999 13.5318L12.8136 13.3204L12.528 13.5318L12.6372 13.1902L12.3516 12.9788H12.7051L12.8143 12.6372L12.9235 12.9788H13.277L12.9914 13.1902L13.0999 13.5318ZM12.9907 11.6803L13.0999 12.0219L12.8136 11.8112L12.528 12.0219L12.6372 11.6803L12.3516 11.4689H12.7051L12.8143 11.1273L12.9235 11.4689H13.277L12.9907 11.6803ZM12.9907 10.1697L13.0999 10.512L12.8136 10.3006L12.528 10.512L12.6372 10.1697L12.3516 9.959H12.7051L12.8143 9.6167L12.9235 9.959H13.277L12.9907 10.1697ZM12.9907 8.6598L13.0999 9.0021L12.8136 8.7907L12.528 9.0021L12.6372 8.6598L12.3516 8.4484H12.7051L12.8143 8.1061L12.9235 8.4484H13.277L12.9907 8.6598ZM12.9907 7.1499L13.0999 7.4922L12.8136 7.2808L12.528 7.4922L12.6372 7.1499L12.3516 6.9385H12.7051L12.8143 6.5962L12.9235 6.9385H13.277L12.9907 7.1499Z" fill="#293464"/>
<path d="M3.58594 5.67282C3.62164 5.66442 3.65804 5.65812 3.69444 5.65112C3.65804 5.65812 3.62234 5.66442 3.58594 5.67282Z" fill="#E3E7EA"/>
<path d="M14.1709 8.18429H26.5791C26.5427 7.71109 26.3964 7.27009 26.1542 6.89209H14.1716L14.1709 8.18429Z" fill="#E3E7EA"/>
<path d="M26.0381 6.73242C26.0759 6.78352 26.1151 6.83182 26.1494 6.88502C26.1151 6.83182 26.0759 6.78282 26.0381 6.73242Z" fill="#E3E7EA"/>
<path d="M24.9453 22.1501C24.9201 22.1613 24.8963 22.1753 24.8711 22.1858C24.897 22.1753 24.9201 22.1613 24.9453 22.1501Z" fill="#E3E7EA"/>
<path d="M24.4151 22.3271C24.3794 22.3355 24.343 22.3418 24.3066 22.3488C24.343 22.3418 24.3787 22.3355 24.4151 22.3271Z" fill="#E3E7EA"/>
<path d="M1.5752 7.45633C1.6032 7.37583 1.6347 7.29673 1.6697 7.21973C1.634 7.29673 1.6039 7.37583 1.5752 7.45633Z" fill="#E3E7EA"/>
<path d="M1.42285 8.17613C1.43895 7.97243 1.47885 7.77643 1.53415 7.58813C1.47675 7.77713 1.43965 7.97313 1.42285 8.17613Z" fill="#E3E7EA"/>
<path d="M1.85059 6.88575C1.88489 6.83255 1.92479 6.78355 1.96189 6.73315C1.92409 6.78425 1.88489 6.83255 1.85059 6.88575Z" fill="#E3E7EA"/>
<path d="M1.84678 21.1079H26.1536C26.3965 20.7299 26.5421 20.2889 26.5785 19.8157H1.42188C1.45828 20.2889 1.60458 20.7299 1.84678 21.1079Z" fill="#E3E7EA"/>
<path d="M26.1501 21.1143C26.1158 21.1675 26.0759 21.2172 26.0381 21.2676C26.0759 21.2165 26.1158 21.1675 26.1501 21.1143Z" fill="#E3E7EA"/>
<path d="M26.6004 17.2312H1.40039V18.5234H26.6004V17.2312Z" fill="#E3E7EA"/>
<path d="M1.40039 14.647V15.9392H26.6004V14.647H14.1705H1.40039Z" fill="#E3E7EA"/>
<path d="M14.1709 13.3532V13.3539H26.6008V12.061H14.1709V13.3532Z" fill="#E3E7EA"/>
<path d="M26.6008 9.47656H14.1709V10.7688H26.6008V9.47656Z" fill="#E3E7EA"/>
<path d="M2.41094 6.59692L2.30104 6.93922H1.94824L2.23384 7.14992L2.12464 7.49222L2.41094 7.28012L2.69654 7.49222L2.58734 7.14992L2.87294 6.93922H2.52014L2.41094 6.59692Z" fill="#E3E7EA"/>
<path d="M2.41094 8.10669L2.30104 8.44899H1.94824L2.23384 8.65969L2.12464 9.00199L2.41094 8.79059L2.69654 9.00199L2.58734 8.65969L2.87294 8.44899H2.52014L2.41094 8.10669Z" fill="#E3E7EA"/>
<path d="M2.41094 9.6167L2.30104 9.959H1.94824L2.23384 10.1697L2.12464 10.512L2.41094 10.3006L2.69654 10.512L2.58734 10.1697L2.87294 9.959H2.52014L2.41094 9.6167Z" fill="#E3E7EA"/>
<path d="M2.41094 11.1272L2.30104 11.4688H1.94824L2.23384 11.6809L2.12464 12.0218L2.41094 11.8111L2.69654 12.0218L2.58734 11.6809L2.87294 11.4688H2.52014L2.41094 11.1272Z" fill="#E3E7EA"/>
<path d="M2.52014 12.9788L2.41094 12.6372L2.30104 12.9788H1.94824L2.23384 13.1909L2.12464 13.5325L2.41094 13.3211L2.69654 13.5325L2.58734 13.1909L2.87294 12.9788H2.52014Z" fill="#E3E7EA"/>
<path d="M3.44442 7.39282L3.33592 7.73442H2.98242L3.26802 7.94582L3.15882 8.28742L3.44442 8.07672L3.73072 8.28742L3.62152 7.94582L3.90712 7.73442H3.55362L3.44442 7.39282Z" fill="#E3E7EA"/>
<path d="M3.44442 8.90259L3.33592 9.24419H2.98242L3.26802 9.45559L3.15882 9.79719L3.44442 9.58649L3.73072 9.79719L3.62152 9.45559L3.90712 9.24419H3.55362L3.44442 8.90259Z" fill="#E3E7EA"/>
<path d="M3.44442 10.4126L3.33592 10.7542H2.98242L3.26802 10.9663L3.15882 11.3072L3.44442 11.0965L3.73072 11.3072L3.62152 10.9663L3.90712 10.7542H3.55362L3.44442 10.4126Z" fill="#E3E7EA"/>
<path d="M3.55362 12.264L3.44442 11.9224L3.33592 12.264H2.98242L3.26802 12.4761L3.15882 12.817L3.44442 12.6063L3.73072 12.817L3.62152 12.4761L3.90712 12.264H3.55362Z" fill="#E3E7EA"/>
<path d="M4.492 6.59692L4.3828 6.93922H4.0293L4.3156 7.14992L4.2064 7.49222L4.492 7.28012L4.7783 7.49222L4.6684 7.14992L4.9547 6.93922H4.6012L4.492 6.59692Z" fill="#E3E7EA"/>
<path d="M4.492 8.10669L4.3828 8.44899H4.0293L4.3156 8.65969L4.2064 9.00199L4.492 8.79059L4.7783 9.00199L4.6684 8.65969L4.9547 8.44899H4.6012L4.492 8.10669Z" fill="#E3E7EA"/>
<path d="M4.492 9.6167L4.3828 9.959H4.0293L4.3156 10.1697L4.2064 10.512L4.492 10.3006L4.7783 10.512L4.6684 10.1697L4.9547 9.959H4.6012L4.492 9.6167Z" fill="#E3E7EA"/>
<path d="M4.492 11.1272L4.3828 11.4688H4.0293L4.3156 11.6809L4.2064 12.0218L4.492 11.8111L4.7783 12.0218L4.6684 11.6809L4.9547 11.4688H4.6012L4.492 11.1272Z" fill="#E3E7EA"/>
<path d="M4.6012 12.9788L4.492 12.6372L4.3828 12.9788H4.0293L4.3156 13.1909L4.2064 13.5325L4.492 13.3211L4.7783 13.5325L4.6684 13.1909L4.9547 12.9788H4.6012Z" fill="#E3E7EA"/>
<path d="M5.5252 7.39282L5.416 7.73442H5.0625L5.3481 7.94582L5.2396 8.28742L5.5252 8.07672L5.8108 8.28742L5.7023 7.94582L5.9879 7.73442H5.6344L5.5252 7.39282Z" fill="#E3E7EA"/>
<path d="M5.5252 8.90259L5.416 9.24419H5.0625L5.3481 9.45559L5.2396 9.79719L5.5252 9.58649L5.8108 9.79719L5.7023 9.45559L5.9879 9.24419H5.6344L5.5252 8.90259Z" fill="#E3E7EA"/>
<path d="M5.5252 10.4126L5.416 10.7542H5.0625L5.3481 10.9663L5.2396 11.3072L5.5252 11.0965L5.8108 11.3072L5.7023 10.9663L5.9879 10.7542H5.6344L5.5252 10.4126Z" fill="#E3E7EA"/>
<path d="M5.6344 12.264L5.5252 11.9224L5.416 12.264H5.0625L5.3481 12.4761L5.2396 12.817L5.5252 12.6063L5.8108 12.817L5.7023 12.4761L5.9879 12.264H5.6344Z" fill="#E3E7EA"/>
<path d="M6.57305 6.59692L6.46385 6.93922H6.11035L6.39595 7.14992L6.28675 7.49222L6.57305 7.28012L6.85865 7.49222L6.74945 7.14992L7.03505 6.93922H6.68225L6.57305 6.59692Z" fill="#E3E7EA"/>
<path d="M6.57305 8.10669L6.46385 8.44899H6.11035L6.39595 8.65969L6.28675 9.00199L6.57305 8.79059L6.85865 9.00199L6.74945 8.65969L7.03505 8.44899H6.68225L6.57305 8.10669Z" fill="#E3E7EA"/>
<path d="M6.57305 9.6167L6.46385 9.959H6.11035L6.39595 10.1697L6.28675 10.512L6.57305 10.3006L6.85865 10.512L6.74945 10.1697L7.03505 9.959H6.68225L6.57305 9.6167Z" fill="#E3E7EA"/>
<path d="M6.57305 11.1272L6.46385 11.4688H6.11035L6.39595 11.6809L6.28675 12.0218L6.57305 11.8111L6.85865 12.0218L6.74945 11.6809L7.03505 11.4688H6.68225L6.57305 11.1272Z" fill="#E3E7EA"/>
<path d="M6.68225 12.9788L6.57305 12.6372L6.46385 12.9788H6.11035L6.39595 13.1909L6.28675 13.5325L6.57305 13.3211L6.85865 13.5325L6.74945 13.1909L7.03505 12.9788H6.68225Z" fill="#E3E7EA"/>
<path d="M7.60723 7.39282L7.49733 7.73442H7.14453L7.43013 7.94582L7.32093 8.28742L7.60723 8.07672L7.89283 8.28742L7.78363 7.94582L8.06923 7.73442H7.71643L7.60723 7.39282Z" fill="#E3E7EA"/>
<path d="M7.60723 8.90259L7.49733 9.24419H7.14453L7.43013 9.45559L7.32093 9.79719L7.60723 9.58649L7.89283 9.79719L7.78363 9.45559L8.06923 9.24419H7.71643L7.60723 8.90259Z" fill="#E3E7EA"/>
<path d="M7.60723 10.4126L7.49733 10.7542H7.14453L7.43013 10.9663L7.32093 11.3072L7.60723 11.0965L7.89283 11.3072L7.78363 10.9663L8.06923 10.7542H7.71643L7.60723 10.4126Z" fill="#E3E7EA"/>
<path d="M7.71643 12.264L7.60723 11.9224L7.49733 12.264H7.14453L7.43013 12.4761L7.32093 12.817L7.60723 12.6063L7.89283 12.817L7.78363 12.4761L8.06923 12.264H7.71643Z" fill="#E3E7EA"/>
<path d="M8.65341 6.59692L8.54491 6.93922H8.19141L8.47701 7.14992L8.36781 7.49222L8.65341 7.28012L8.93971 7.49222L8.83051 7.14992L9.11611 6.93922H8.76331L8.65341 6.59692Z" fill="#E3E7EA"/>
<path d="M8.65341 8.10669L8.54491 8.44899H8.19141L8.47701 8.65969L8.36781 9.00199L8.65341 8.79059L8.93971 9.00199L8.83051 8.65969L9.11611 8.44899H8.76331L8.65341 8.10669Z" fill="#E3E7EA"/>
<path d="M8.65341 9.6167L8.54491 9.959H8.19141L8.47701 10.1697L8.36781 10.512L8.65341 10.3006L8.93971 10.512L8.83051 10.1697L9.11611 9.959H8.76331L8.65341 9.6167Z" fill="#E3E7EA"/>
<path d="M8.65341 11.1272L8.54491 11.4688H8.19141L8.47701 11.6809L8.36781 12.0218L8.65341 11.8111L8.93971 12.0218L8.83051 11.6809L9.11611 11.4688H8.76331L8.65341 11.1272Z" fill="#E3E7EA"/>
<path d="M8.76331 12.9788L8.65341 12.6372L8.54491 12.9788H8.19141L8.47701 13.1909L8.36781 13.5325L8.65341 13.3211L8.93971 13.5325L8.83051 13.1909L9.11611 12.9788H8.76331Z" fill="#E3E7EA"/>
<path d="M9.68731 7.39282L9.57811 7.73442H9.22461L9.51091 7.94582L9.40171 8.28742L9.68731 8.07672L9.97361 8.28742L9.86441 7.94582L10.15 7.73442H9.79651L9.68731 7.39282Z" fill="#E3E7EA"/>
<path d="M9.68731 8.90259L9.57811 9.24419H9.22461L9.51091 9.45559L9.40171 9.79719L9.68731 9.58649L9.97361 9.79719L9.86441 9.45559L10.15 9.24419H9.79651L9.68731 8.90259Z" fill="#E3E7EA"/>
<path d="M9.68731 10.4126L9.57811 10.7542H9.22461L9.51091 10.9663L9.40171 11.3072L9.68731 11.0965L9.97361 11.3072L9.86441 10.9663L10.15 10.7542H9.79651L9.68731 10.4126Z" fill="#E3E7EA"/>
<path d="M9.79651 12.264L9.68731 11.9224L9.57811 12.264H9.22461L9.51091 12.4761L9.40171 12.817L9.68731 12.6063L9.97361 12.817L9.86441 12.4761L10.15 12.264H9.79651Z" fill="#E3E7EA"/>
<path d="M10.7342 6.59692L10.625 6.93922H10.2715L10.5571 7.14992L10.4486 7.49222L10.7342 7.28012L11.0198 7.49222L10.9113 7.14992L11.1969 6.93922H10.8434L10.7342 6.59692Z" fill="#E3E7EA"/>
<path d="M10.7342 8.10669L10.625 8.44899H10.2715L10.5571 8.65969L10.4486 9.00199L10.7342 8.79059L11.0198 9.00199L10.9113 8.65969L11.1969 8.44899H10.8434L10.7342 8.10669Z" fill="#E3E7EA"/>
<path d="M10.7342 9.6167L10.625 9.959H10.2715L10.5571 10.1697L10.4486 10.512L10.7342 10.3006L11.0198 10.512L10.9113 10.1697L11.1969 9.959H10.8434L10.7342 9.6167Z" fill="#E3E7EA"/>
<path d="M10.7342 11.1272L10.625 11.4688H10.2715L10.5571 11.6809L10.4486 12.0218L10.7342 11.8111L11.0198 12.0218L10.9113 11.6809L11.1969 11.4688H10.8434L10.7342 11.1272Z" fill="#E3E7EA"/>
<path d="M10.8434 12.9788L10.7342 12.6372L10.625 12.9788H10.2715L10.5571 13.1909L10.4486 13.5325L10.7342 13.3211L11.0198 13.5325L10.9113 13.1909L11.1969 12.9788H10.8434Z" fill="#E3E7EA"/>
<path d="M11.7684 7.39282L11.6592 7.73442H11.3057L11.592 7.94582L11.4821 8.28742L11.7684 8.07672L12.054 8.28742L11.9448 7.94582L12.2311 7.73442H11.8776L11.7684 7.39282Z" fill="#E3E7EA"/>
<path d="M11.7684 8.90259L11.6592 9.24419H11.3057L11.592 9.45559L11.4821 9.79719L11.7684 9.58649L12.054 9.79719L11.9448 9.45559L12.2311 9.24419H11.8776L11.7684 8.90259Z" fill="#E3E7EA"/>
<path d="M11.7684 10.4126L11.6592 10.7542H11.3057L11.592 10.9663L11.4821 11.3072L11.7684 11.0965L12.054 11.3072L11.9448 10.9663L12.2311 10.7542H11.8776L11.7684 10.4126Z" fill="#E3E7EA"/>
<path d="M11.8776 12.264L11.7684 11.9224L11.6592 12.264H11.3057L11.592 12.4761L11.4821 12.817L11.7684 12.6063L12.054 12.817L11.9448 12.4761L12.2311 12.264H11.8776Z" fill="#E3E7EA"/>
<path d="M12.8145 6.59692L12.706 6.93922H12.3525L12.6381 7.14992L12.5289 7.49222L12.8145 7.28012L13.1008 7.49222L12.9916 7.14992L13.2772 6.93922H12.9244L12.8145 6.59692Z" fill="#E3E7EA"/>
<path d="M12.8145 8.10669L12.706 8.44899H12.3525L12.6381 8.65969L12.5289 9.00199L12.8145 8.79059L13.1008 9.00199L12.9916 8.65969L13.2772 8.44899H12.9244L12.8145 8.10669Z" fill="#E3E7EA"/>
<path d="M12.8145 9.6167L12.706 9.959H12.3525L12.6381 10.1697L12.5289 10.512L12.8145 10.3006L13.1008 10.512L12.9916 10.1697L13.2772 9.959H12.9244L12.8145 9.6167Z" fill="#E3E7EA"/>
<path d="M12.8145 11.1272L12.706 11.4688H12.3525L12.6381 11.6809L12.5289 12.0218L12.8145 11.8111L13.1008 12.0218L12.9916 11.6809L13.2772 11.4688H12.9244L12.8145 11.1272Z" fill="#E3E7EA"/>
<path d="M12.9244 12.9788L12.8145 12.6372L12.706 12.9788H12.3525L12.6381 13.1909L12.5289 13.5325L12.8145 13.3211L13.1008 13.5325L12.9916 13.1909L13.2772 12.9788H12.9244Z" fill="#E3E7EA"/>
</svg>
