<svg width="218" height="50" viewBox="0 0 218 50" fill="none" xmlns="http://www.w3.org/2000/svg">
<g clip-path="url(#clip0_40007530_7847)">
<path d="M42.0473 40.1596C42.0473 38.3141 40.5668 36.8189 38.7397 36.8189C36.9096 36.8189 35.4316 38.3141 35.4316 40.1596C35.4316 40.2808 35.437 40.4005 35.4503 40.5188C37.6033 40.6761 39.7515 40.8934 41.8925 41.1704C41.9959 40.8437 42.0481 40.5026 42.0473 40.1596Z" fill="#008C44"/>
<path d="M41.892 41.1704C41.4654 42.5202 40.2168 43.4989 38.7391 43.4989C37.0316 43.4989 35.6288 42.1931 35.4498 40.5188C15.1361 39.0317 0 43.1866 0 43.1866C29.3917 49.5168 52.9999 43.1866 52.9999 43.1866C49.2119 42.2915 45.4933 41.6374 41.892 41.1704Z" fill="#008C44"/>
<path d="M41.8925 41.1704C41.4658 42.5202 40.2172 43.4989 38.7396 43.4989C37.0321 43.4989 35.6292 42.1931 35.4502 40.5188C37.6032 40.6761 39.7514 40.8934 41.8925 41.1704Z" fill="white"/>
<path d="M21.1651 26.604L21.1597 26.6083L21.1465 26.6162L21.1225 26.6271C21.1225 26.6285 21.021 26.7064 20.957 26.7575C21.5492 27.0819 21.9387 27.6216 22.0027 28.2259L22.1335 29.4805C22.1335 29.483 22.1681 29.9583 22.1867 30.1549C23.0458 29.5383 23.2966 29.28 23.2991 29.2772L23.3259 29.2504C23.6461 28.9731 23.8219 28.5909 23.8219 28.1722C23.8219 27.7604 23.6565 27.3432 23.3499 26.9635C22.3547 25.7428 21.2132 26.5691 21.1651 26.604Z" fill="#005BAB"/>
<path d="M11.615 19.3183C11.5831 19.3547 8.92348 22.6348 8.85133 27.1965C8.85133 27.1965 8.84082 27.393 8.84082 27.6487C8.84082 28.6473 9.23032 31.214 13.0236 33.5952C13.0396 33.6059 14.4773 34.5644 17.0037 33.1617C17.0037 33.1617 18.7723 32.1887 18.823 32.1603C18.8177 32.0932 18.6308 30.5372 18.6308 30.5372L18.5989 30.257C18.5989 30.2465 18.6042 30.1953 18.6042 30.1953C18.6042 30.1953 18.4548 28.7792 18.4202 28.4427C16.1501 29.7539 14.4587 30.2422 13.8237 29.6757C13.8026 29.6649 11.7697 27.8398 12.6366 25.569C12.6501 25.5221 14.3147 20.4128 17.4089 20.5109C17.8307 20.5365 18.332 20.6536 18.5776 20.62C19.0789 20.5512 19.5591 20.2995 19.7778 19.4247C19.8178 19.266 19.8661 19.0154 19.8661 18.7341C19.8661 18.1528 19.6552 17.3761 18.6629 16.9884C18.6736 16.9859 18.4095 16.8889 17.956 16.8175C17.9185 16.8095 14.3733 16.0869 11.615 19.3183Z" fill="#005BAB"/>
<path d="M20.306 26.693C19.7032 26.7496 19.1536 27.0295 18.8016 27.4643C18.5702 27.7414 18.4336 28.0864 18.4121 28.4481C19.4019 27.8517 20.325 27.2286 21.0182 26.7414C20.8289 26.6688 20.5461 26.6714 20.306 26.693Z" fill="#ED1C24"/>
<path d="M18.4121 28.4442C18.4174 28.5048 18.6147 30.4106 18.6147 30.4106V30.4698L18.639 30.6904C18.639 30.6904 18.7748 31.8628 18.8123 32.1671C20.1034 31.4296 21.2504 30.7471 22.2107 30.1427V30.1415C22.2054 30.0821 22.1203 29.226 22.1203 29.226L22.1254 29.2289C22.1254 29.2181 22.1203 29.2086 22.1174 29.1979C22.1174 29.1965 21.992 27.9811 21.992 27.9811C21.9334 27.4414 21.4424 26.8438 21.005 26.7321C20.3782 27.1818 19.4284 27.8345 18.4121 28.4442Z" fill="#542785"/>
<path d="M30.3073 25.8183C29.8456 26.0617 29.499 26.4696 29.3603 26.9354C29.2428 27.3202 29.2749 27.7162 29.4561 28.0511C29.4561 28.0511 30.0031 28.9382 30.2512 29.4161C30.5339 29.9516 31.2114 31.2304 31.2488 32.245C31.2861 33.1051 30.8647 33.6315 30.6354 33.7892C30.4059 33.9464 29.6777 34.4135 28.7546 34.6921C25.5082 35.6708 23.5717 33.8509 23.5449 33.8267C22.8034 33.2089 22.4032 31.3219 22.2216 30.1117C21.2453 30.7229 20.0983 31.3973 18.8232 32.1239C19.1273 34.2735 20.0715 35.3448 20.0797 35.3531C22.0884 37.8175 24.6944 38.4259 24.7345 38.4341C26.1964 38.5835 26.9221 38.4288 26.9275 38.4273C28.1225 38.282 30.6085 37.2402 31.4408 36.7004C32.6814 36.0033 34.7728 34.8915 34.9221 33.3987L34.9513 32.8065C34.9513 31.4875 34.5407 30.3999 34.5407 30.3904L34.5569 30.4132L34.4979 30.3028L34.1807 29.5787C33.7192 28.5102 32.6948 26.4479 32.6521 26.3607C32.2413 25.5961 31.1902 25.3524 30.3073 25.8183Z" fill="#ED1C24"/>
<path d="M36.9968 17.7878C36.9968 17.7878 36.8288 18.1124 36.786 18.1931C37.6078 18.4153 38.3225 18.8743 38.9307 19.5324C38.9415 19.5404 40.4194 20.8689 40.4194 23.0508C40.4194 23.9661 40.1552 24.9 39.6297 25.8261C39.5711 25.9487 38.1199 28.9126 35.8364 29.5317C35.8204 29.5357 34.3212 29.9017 33.841 29.9205C33.753 29.9237 33.6664 29.9424 33.5848 29.9757C33.1528 30.1454 32.8486 30.7524 32.8486 31.4483C32.8486 31.6918 32.8859 31.9287 32.9555 32.1537C33.1634 32.8118 33.6649 33.2989 34.2623 33.4256C34.5132 33.4767 34.7533 33.4645 34.9882 33.3865C34.9906 33.3851 35.0254 33.3769 35.0254 33.3769C35.6603 33.2196 37.773 32.6892 38.2106 32.467C38.4372 32.3729 40.4301 31.5183 41.6359 29.6972L42.3827 28.5462C43.4068 27.0146 44.2687 24.2676 44.2687 22.079C44.2687 21.7303 44.2445 21.4046 44.1915 21.1112C44.1808 21.0614 43.0016 16.0302 38.4612 14.4755C38.3225 15.1673 37.2476 17.2711 36.9968 17.7878Z" fill="#F5821F"/>
<path d="M32.2565 15.2253C31.7709 15.5026 31.499 16.0302 31.499 16.6815C31.499 17.01 31.5308 17.1932 31.6322 17.5617C31.8884 18.4986 33.078 18.8916 33.4407 18.5862C33.2543 18.2468 33.1848 17.9927 33.1848 17.6359C33.1848 17.3291 33.2543 17.0371 33.3875 16.7717C33.3875 16.7705 33.9478 15.75 33.9478 15.75C34.2276 15.248 34.5639 14.6478 34.7695 14.2506C33.9424 14.5024 32.7686 14.8672 32.2565 15.2253Z" fill="#F5821F"/>
<path d="M30.691 4.06989L30.6802 4.07106C30.6563 4.07245 27.8019 4.52329 24.8248 6.62053C24.3019 6.98912 23.1227 7.97024 23.4429 9.11305C23.5976 9.65964 23.8271 9.99875 24.1526 10.1495C24.5207 10.3232 25.0381 10.2547 25.6999 9.95041C25.6999 9.95041 26.396 9.51693 29.6639 7.75496C29.6851 7.74424 31.8166 6.62706 32.9291 8.52627C32.9291 8.52627 33.2253 8.99073 34.4921 10.9893C34.5135 11.0272 35.2658 12.2359 34.9084 13.4447C34.823 13.7393 34.7322 14.0086 34.6415 14.3046C35.5112 14.0797 35.9621 14.0797 36.1034 14.1323C36.8555 14.0959 37.4959 14.2965 38.1149 14.4904L38.4751 14.5913C38.6483 13.9707 38.747 13.1389 38.747 12.5737C38.747 11.7808 38.5604 11.042 38.2856 10.5572C38.2056 10.4148 36.3489 7.14266 35.6446 6.11565C35.5805 6.00673 34.1776 3.55965 30.691 4.06989Z" fill="#D8098C"/>
<path d="M36.2071 17.9119C36.2047 17.9119 35.759 17.9336 35.759 17.9336C34.7508 18.0155 33.8651 18.3399 33.2754 18.6104C33.5077 18.9241 33.6971 19.0425 33.9157 19.1636C34.2413 19.3414 34.5881 19.4085 34.9456 19.4261L34.9402 19.4275C34.9668 19.4247 35.0468 19.4207 35.3347 19.4085L35.3724 19.4059C35.9431 19.3172 36.5194 18.9778 36.8236 18.3464C36.8236 18.3464 36.9304 18.1582 37.0047 17.9739C36.7194 17.9321 36.4553 17.9105 36.2071 17.9119Z" fill="#D8098C"/>
<path d="M36.2477 14.0285H36.2266C36.2213 14.0285 35.4582 14.0058 34.6472 14.2856C34.4977 14.6398 33.9724 15.625 33.4896 16.5268L33.1909 17.0853C33.0787 17.2913 33.0254 17.516 33.0254 17.7543C33.0254 18.0532 33.1241 18.3601 33.3027 18.6439C33.8524 18.3937 34.69 18.0882 35.6502 18.0114C35.6555 18.0114 36.1677 17.9764 36.8827 18.2201C36.9174 18.1553 37.2243 17.5606 37.2243 17.5606C37.2347 17.5404 38.2992 15.5441 38.4939 14.489C37.9443 14.2319 37.0267 13.983 36.2477 14.0285Z" fill="#A62A57"/>
<path d="M28.4371 21.2082C28.9013 20.9053 29.2054 20.4492 29.2054 19.9336C29.2054 19.3251 28.7891 18.8002 28.1837 18.5149C28.5544 18.2726 28.7998 17.9066 28.7998 17.4918C28.7998 16.9978 28.4582 16.5741 27.9622 16.3466C28.2717 16.1526 28.4743 15.8525 28.4743 15.5121C28.4743 15.1014 28.1784 14.7476 27.7541 14.5724C28.0155 14.4216 28.1917 14.1754 28.1917 13.8955C28.1917 13.4364 27.7275 13.0635 27.1567 13.0635C26.5857 13.0635 26.1215 13.4364 26.1215 13.8955C26.1215 14.1754 26.2949 14.4216 26.5589 14.5724C26.1322 14.7476 25.8389 15.1014 25.8389 15.5121C25.8389 15.8525 26.0415 16.1526 26.351 16.3466C25.8549 16.5727 25.5133 16.9978 25.5133 17.4918C25.5133 17.9066 25.756 18.2726 26.1269 18.5149C25.5215 18.8016 25.1078 19.3251 25.1078 19.9336C25.1078 20.4492 25.4093 20.9053 25.8735 21.2082C25.0998 21.5674 24.5742 22.2309 24.5742 23.0008C24.5742 24.1479 25.7294 25.0779 27.1567 25.0779C28.5812 25.0779 29.7389 24.1479 29.7389 23.0008C29.7389 22.2309 29.2108 21.5674 28.4371 21.2082Z" fill="#F5821F"/>
<path d="M14.9709 6.027C12.6181 7.14814 11.6497 10.275 11.6418 10.3071C11.1802 11.5656 11.0869 13.1714 11.0869 14.2994C11.0869 15.053 11.4604 16.5496 11.5243 16.9213C11.8581 18.8891 13.4343 18.6415 13.4343 18.6415C13.7653 18.6253 14.0054 18.5525 14.3202 18.3641C14.9602 17.9791 15.3497 17.4327 15.2939 16.6441C15.2644 16.3087 14.8562 14.699 14.8562 14.3734C14.8562 12.7138 15.2218 11.7582 15.2378 11.7178C15.686 10.6302 16.342 10.0554 17.2011 10.0096C19.2497 9.89927 21.6615 12.9547 21.6772 12.9857C21.9441 13.4433 22.275 13.7069 22.6538 13.7664C23.3525 13.8753 24.0304 13.2749 24.0382 13.2695C24.0515 13.2576 24.0596 13.2521 24.0596 13.2521C24.4917 12.9586 24.7904 12.5159 24.8812 12.038L24.9105 11.7459C24.9105 11.4513 24.8251 11.1726 24.665 10.9385C24.6596 10.933 24.6117 10.8711 24.2916 10.4484C21.2559 6.65561 18.8924 6.10494 18.8684 6.09958L18.8471 6.0955L18.8338 6.09014C17.4198 5.50057 16.1234 5.48041 14.9709 6.027Z" fill="#008C44"/>
<path d="M40.9106 39.0464C40.8147 39.3761 40.4623 39.3317 39.9982 39.1918C39.5286 39.0533 39.1234 38.8741 39.2192 38.543C39.3154 38.212 39.8756 37.8552 40.3451 37.9938C40.8118 38.1323 41.0066 38.7153 40.9106 39.0464Z" fill="white"/>
</g>
<path d="M68.752 13.625C72.2939 13.6338 74.3066 14.5215 74.3242 16.1387C74.3066 17.7734 72.2939 18.626 68.752 18.6172C65.1572 18.626 63.1445 17.7734 63.1445 16.1387C63.1445 14.5215 65.1572 13.6338 68.752 13.625ZM61.4746 13.0098V11.2695H67.6445V10.4434C64.9023 10.2852 63.373 9.52051 63.3906 8.19336C63.373 6.67285 65.3242 5.89062 68.7695 5.89062C72.2324 5.89062 74.1396 6.67285 74.1484 8.19336C74.1396 9.52051 72.6455 10.2852 69.8945 10.4434V11.2695H76.0645V13.0098H61.4746ZM62.1777 5.45117V3.76367H67.6445V2.49805H69.8945V3.76367H75.3086V5.45117H62.1777ZM65.4473 16.1387C65.4385 16.7451 66.4756 17 68.752 16.9824C71.002 17 72.0479 16.7451 72.0566 16.1387C72.0479 15.541 71.002 15.2686 68.752 15.2598C66.4756 15.2686 65.4385 15.541 65.4473 16.1387ZM65.7812 8.19336C65.7812 8.70312 66.748 8.94922 68.7695 8.94922C70.8086 8.94922 71.7402 8.70312 71.7402 8.19336C71.7402 7.63086 70.8086 7.39355 68.7695 7.40234C66.748 7.39355 65.7812 7.63086 65.7812 8.19336ZM82.9199 6.38281C82.9287 8.18457 84.0977 10.0215 86.6992 10.8125L85.627 12.5527C83.834 12.0342 82.5684 10.9355 81.8477 9.54688C81.1357 11.0498 79.8701 12.2363 78.0156 12.8164L76.9258 11.0586C79.5273 10.2764 80.6875 8.33398 80.6875 6.38281V6.25977H77.4707V4.50195H80.6875V2.72656H82.9551V4.50195H86.1543V6.25977H82.9199V6.38281ZM79.8965 18.3359V13.4844H82.1465V16.543H90.9004V18.3359H79.8965ZM85.627 9.10742V7.29688H88.2812V2.63867H90.5137V14.5039H88.2812V9.10742H85.627ZM105.49 3.35938V4.74805C105.499 6.08398 105.499 7.52539 105.156 9.40625H107.23V11.1816H101.113V14.5918H98.8809V11.1816H92.5879V9.40625H102.88C103.214 7.70117 103.249 6.38281 103.258 5.15234H94.3809V3.35938H105.49ZM94.293 18.3359V13.1504H96.5254V16.543H105.736V18.3359H94.293Z" fill="#454C53"/>
<path d="M80.0781 24.8281V46.1562H77.2422V35.4453H75.1797V45.125H72.4375V25.1797H75.1797V33.0547H77.2422V24.8281H80.0781ZM62.2422 41.3281V27.2891H70.1875V29.7031H65.2422V38.8203C67.3047 38.7852 69.1328 38.668 71.1953 38.3047L71.4062 40.7422C68.8047 41.2344 66.5312 41.3164 63.7188 41.3281H62.2422ZM94.2812 26.7969V29.1641H82.4219V26.7969H87.0156V24.6406H89.9922V26.7969H94.2812ZM83.4766 33.875C83.4531 31.5078 85.5273 29.8789 88.4688 29.8672C91.3984 29.8789 93.5078 31.5078 93.5312 33.875C93.5078 36.2656 91.3984 37.8477 88.4688 37.8359C85.5273 37.8477 83.4531 36.2656 83.4766 33.875ZM85.75 42.4297C85.7383 40.0625 88.5508 38.668 93.1094 38.6797C97.6445 38.668 100.457 40.0625 100.469 42.4297C100.457 44.75 97.6445 46.168 93.1094 46.1562C88.5508 46.168 85.7383 44.75 85.75 42.4297ZM86.2656 33.875C86.2539 35.0234 87.1211 35.6328 88.4688 35.6328C89.8047 35.6328 90.7422 35.0234 90.7422 33.875C90.7422 32.7383 89.8047 32.1055 88.4688 32.0938C87.1211 32.1055 86.2539 32.7383 86.2656 33.875ZM88.8906 42.4297C88.8906 43.4023 90.3789 43.9062 93.1094 43.9062C95.7812 43.9062 97.2578 43.4023 97.2578 42.4297C97.2578 41.4102 95.7812 40.9531 93.1094 40.9297C90.3789 40.9531 88.8906 41.4102 88.8906 42.4297ZM94.4688 36.1719V33.7812H97.375V31.9062H94.5156V29.5156H97.375V24.8281H100.352V38.4219H97.375V36.1719H94.4688ZM115.469 28.625C115.469 30.9336 116.664 33.207 119.5 34.2969L117.906 36.5703C116.078 35.8789 114.824 34.6133 114.062 33.043C113.289 34.8828 111.953 36.418 109.961 37.25L108.344 34.9531C111.355 33.6289 112.562 31.0039 112.562 28.625V26.1172H115.469V28.625ZM112.305 42.1719C112.293 39.6758 115.164 38.1758 119.688 38.1875C124.188 38.1758 127.07 39.6758 127.094 42.1719C127.07 44.6445 124.188 46.168 119.688 46.1562C115.164 46.168 112.293 44.6445 112.305 42.1719ZM115.305 42.1719C115.281 43.3203 116.887 43.9062 119.688 43.9062C122.465 43.9062 124.07 43.3203 124.07 42.1719C124.07 41.0117 122.465 40.4141 119.688 40.4141C116.887 40.4141 115.281 41.0117 115.305 42.1719ZM119.57 37.2266V25.2266H122.359V30.0547H124.141V24.8516H126.977V37.8828H124.141V32.4688H122.359V37.2266H119.57ZM146.453 24.8281V29.8672H149.172V32.3516H146.453V37.3906H143.453V24.8281H146.453ZM129.156 35.0938C130.715 35.0938 132.484 35.0938 134.336 35.0586V34.1211C132.004 33.8281 130.574 32.8672 130.586 31.3438C130.574 29.6094 132.625 28.5898 135.812 28.6016C138.977 28.5898 141.027 29.6094 141.039 31.3438C141.027 32.8555 139.609 33.8164 137.312 34.1094V34.9531C139.07 34.8594 140.816 34.7188 142.469 34.5078L142.68 36.3594C138.133 37.1211 133.188 37.1562 129.461 37.1562L129.156 35.0938ZM129.719 28.1562V26.1641H134.336V24.6406H137.312V26.1641H141.93V28.1562H129.719ZM131.992 40.1328V38.1406H146.453V42.9219H135.016V44.0234H147.156V46.0156H132.016V41.1172H143.453V40.1328H131.992ZM133.445 31.3438C133.434 31.9883 134.289 32.3164 135.812 32.3281C137.312 32.3164 138.168 31.9883 138.18 31.3438C138.168 30.7227 137.312 30.4531 135.812 30.4531C134.289 30.4531 133.434 30.7227 133.445 31.3438ZM174.32 24.8281V46.1562H171.438V24.8281H174.32ZM155.43 38.9141C155.969 38.9141 156.566 38.9141 157.211 38.9023V29.6094H155.828V27.1953H165.602V29.6094H164.242V38.6562C164.828 38.6094 165.391 38.5508 165.906 38.4922L166.117 40.7188C162.848 41.293 158.512 41.3633 155.758 41.375L155.43 38.9141ZM159.859 38.8672C160.422 38.8438 160.984 38.832 161.547 38.8086V29.6094H159.859V38.8672ZM165.133 37.3906V34.9531H167.219V33.1484H165.133V30.7109H167.219V25.25H170.008V45.1484H167.219V37.3906H165.133ZM194.336 24.8281V46.1562H191.312V24.8281H194.336ZM176.477 40.1094C181.984 37.5078 184.41 34.1328 184.891 29.3984H177.625V27.0547H187.938C187.926 33.5234 185.664 38.9023 178.047 42.5L176.477 40.1094ZM216.602 33.2891V35.6562H208.352V37.0156H214.234V42.4766H202.352V43.7656H214.797V46.0156H199.422V40.3672H211.281V39.2656H199.398V37.0156H205.352V35.6562H197.148V33.2891H216.602ZM199.562 32.1641V25.4375H214.141V32.1641H199.562ZM202.492 29.8672H211.164V27.7578H202.492V29.8672Z" fill="#1B1D1F"/>
<defs>
<clipPath id="clip0_40007530_7847">
<rect width="53" height="42" fill="white" transform="translate(0 4)"/>
</clipPath>
</defs>
</svg>
