<svg width="48" height="48" viewBox="0 0 48 48" fill="none" xmlns="http://www.w3.org/2000/svg">
<path d="M27.8656 10.5001H19.6274V8.09628C19.6274 7.35108 20.2184 6.75012 20.9512 6.75012H26.5537C27.2865 6.75012 27.8774 7.35108 27.8774 8.09628V10.5001H27.8656Z" stroke="#454C53" stroke-width="1.5" stroke-miterlimit="10" stroke-linecap="round"/>
<path d="M12.8425 17.1457C12.6789 15.3867 14.063 13.8678 15.8296 13.8678H32.1702C33.9368 13.8678 35.3209 15.3867 35.1573 17.1457L33.1683 38.5279C33.0248 40.0704 31.7304 41.25 30.1812 41.25H17.8187C16.2695 41.25 14.975 40.0704 14.8316 38.5279L12.8425 17.1457Z" fill="#4299FB"/>
<path d="M10.6274 13.2738C10.6274 10.7885 12.6422 8.7738 15.1274 8.7738H32.8728C35.3581 8.7738 37.3728 10.7885 37.3728 13.2738V14.9153C37.3728 15.7438 36.7013 16.4153 35.8728 16.4153H12.1274C11.299 16.4153 10.6274 15.7438 10.6274 14.9153V13.2738Z" fill="#1C3D63"/>
<path d="M25.1279 35.4056C25.1279 35.8199 24.7921 36.1556 24.3779 36.1556C23.9637 36.1556 23.6279 35.8199 23.6279 35.4056L23.6279 21.6222C23.6279 21.208 23.9637 20.8722 24.3779 20.8722C24.7921 20.8722 25.1279 21.208 25.1279 21.6222L25.1279 35.4056Z" fill="white"/>
<path d="M28.694 35.4821C28.6565 35.8643 28.3352 36.1556 27.9512 36.1556C27.5101 36.1556 27.1653 35.7753 27.2083 35.3363L28.5618 21.5457C28.5993 21.1635 28.9207 20.8722 29.3047 20.8722C29.7457 20.8722 30.0906 21.2526 30.0475 21.6915L28.694 35.4821Z" fill="white"/>
<path d="M21.5475 35.3363C21.5906 35.7753 21.2457 36.1556 20.8047 36.1556C20.4207 36.1556 20.0993 35.8643 20.0618 35.4821L18.7083 21.6915C18.6653 21.2526 19.0101 20.8722 19.4512 20.8722C19.8352 20.8722 20.1565 21.1635 20.194 21.5457L21.5475 35.3363Z" fill="white"/>
</svg>
