<svg width="48" height="48" viewBox="0 0 48 48" fill="none" xmlns="http://www.w3.org/2000/svg">
<path d="M6 6.00065C6 4.52789 7.19391 3.33398 8.66667 3.33398H22.8415C24.3143 3.33398 25.5082 4.52789 25.5082 6.00065V28.2083C25.5082 29.681 24.3143 30.8749 22.8415 30.8749H8.66667C7.19391 30.8749 6 29.681 6 28.2083V6.00065Z" fill="#D9DFE6"/>
<rect x="8.86963" y="7.34961" width="5.7377" height="5.7377" rx="1.33333" fill="#96A5B5"/>
<rect x="8.86963" y="18.2533" width="12.6229" height="1.72131" rx="0.666667" fill="#96A5B5"/>
<rect x="8.86963" y="21.1205" width="12.6229" height="1.72131" rx="0.666667" fill="#96A5B5"/>
<rect x="8.86963" y="23.9902" width="5.7377" height="1.72131" rx="0.666667" fill="#96A5B5"/>
<rect x="27.2295" y="32.4222" width="4.62049" height="12.0133" transform="rotate(-45 27.2295 32.4222)" fill="#D9D9D9"/>
<rect x="31.8037" y="38.3021" width="6.46869" height="8.77893" rx="1.33333" transform="rotate(-45 31.8037 38.3021)" fill="#444236"/>
<circle cx="23.4996" cy="24.8515" r="11.7623" fill="#444236"/>
<g clip-path="url(#clip0_40007581_500)">
<circle cx="25.0322" cy="24.8503" r="11" fill="#6EC4DB"/>
<g opacity="0.5">
<path d="M-0.633789 -7.95015C-0.633789 -9.42291 0.560118 -10.6168 2.03288 -10.6168H35.3662C36.839 -10.6168 38.0329 -9.42291 38.0329 -7.95015V41.3047C38.0329 42.7775 36.839 43.9714 35.3662 43.9714H2.03288C0.560122 43.9714 -0.633789 42.7775 -0.633789 41.3047V-7.95015Z" fill="#D9DFE6"/>
<rect x="9.36621" y="18.0502" width="18.6667" height="3.33333" rx="0.666667" fill="#96A5B5"/>
<rect x="9.36621" y="24.0502" width="18.6667" height="3.33333" rx="0.666667" fill="#96A5B5"/>
<rect x="9.36621" y="29.5394" width="11.3725" height="3.41176" rx="0.666667" fill="#96A5B5"/>
</g>
</g>
<defs>
<clipPath id="clip0_40007581_500">
<rect x="14.0322" y="15.3832" width="18.9344" height="18.9344" rx="9.46721" fill="white"/>
</clipPath>
</defs>
</svg>
