<svg width="32" height="32" viewBox="0 0 32 32" fill="none" xmlns="http://www.w3.org/2000/svg">
<path d="M5.56722 18.4509C5.27711 17.1974 6.22903 16 7.51572 16H9.17C10.1008 16 10.9086 16.6422 11.1185 17.5491L13.4328 27.5491C13.7229 28.8026 12.771 30 11.4843 30H9.83001C8.89916 30 8.09138 29.3578 7.8815 28.4509L5.56722 18.4509Z" fill="#573E34"/>
<path d="M4 11C4 8.79086 5.79086 7 8 7H12V21H8C5.79086 21 4 19.2091 4 17V11Z" fill="#81442E"/>
<path d="M12 7L28 3V25L12 21V7Z" fill="#E86E42"/>
<rect x="25" y="2" width="4" height="24" rx="2" fill="#FFC2AC"/>
</svg>
