<svg width="64" height="64" viewBox="0 0 64 64" fill="none" xmlns="http://www.w3.org/2000/svg">
<path d="M0 32C0 14.3269 14.3269 0 32 0C49.6731 0 64 14.3269 64 32C64 49.6731 49.6731 64 32 64C14.3269 64 0 49.6731 0 32Z" fill="#FFF5EC"/>
<path d="M36.7167 36.1167C35.3833 37.45 33.2167 37.45 31.9 36.1167L27.8833 32.1C26.55 30.7667 26.55 28.6 27.8833 27.2833C29.6833 25.4833 29.6833 22.55 27.8833 20.75L24.8 17.6667C23.9333 16.8 22.5167 16.8 21.6333 17.6667L20.35 18.95C15.8833 23.4167 15.8833 30.75 20.35 35.2167L28.7833 43.65C33.25 48.1167 40.5833 48.1167 45.05 43.65L46.3333 42.3667C47.2 41.5 47.2 40.0833 46.3333 39.2L43.25 36.1167C41.45 34.3167 38.5167 34.3167 36.7167 36.1167Z" fill="#FF9A42"/>
</svg>
