<svg width="19" height="19" viewBox="0 0 19 19" fill="none" xmlns="http://www.w3.org/2000/svg">
<path fill-rule="evenodd" clip-rule="evenodd" d="M2.48528 2.48528C5.79899 -0.828427 11.1716 -0.828427 14.4853 2.48528C17.5744 5.57448 17.7818 10.4515 15.1113 13.7831L18.8993 17.5712L17.4853 18.9853L13.6865 15.1865C10.3577 17.7768 5.5449 17.5448 2.48528 14.4853C-0.828427 11.1716 -0.828427 5.79899 2.48528 2.48528ZM13.0712 3.89934C10.5386 1.36668 6.432 1.36668 3.89934 3.89934C1.36668 6.432 1.36668 10.5386 3.89934 13.0712C6.43201 15.6038 10.5386 15.6039 13.0712 13.0712C15.6039 10.5386 15.6038 6.43201 13.0712 3.89934Z" fill="#454C53"/>
</svg>
