<svg width="64" height="64" viewBox="0 0 64 64" fill="none" xmlns="http://www.w3.org/2000/svg">
<path d="M0 16C0 7.16344 7.16344 0 16 0H48C56.8366 0 64 7.16344 64 16V48C64 56.8366 56.8366 64 48 64H16C7.16344 64 0 56.8366 0 48V16Z" fill="white"/>
<path d="M35.8656 18.5H27.6274V16.0962C27.6274 15.351 28.2184 14.75 28.9512 14.75H34.5537C35.2865 14.75 35.8774 15.351 35.8774 16.0962V18.5H35.8656Z" stroke="#454C53" stroke-width="1.5" stroke-miterlimit="10" stroke-linecap="round"/>
<path d="M20.8425 25.1451C20.6789 23.3861 22.063 21.8672 23.8296 21.8672H40.1702C41.9368 21.8672 43.3209 23.3861 43.1573 25.1451L41.1683 46.5273C41.0248 48.0698 39.7304 49.2494 38.1812 49.2494H25.8187C24.2695 49.2494 22.975 48.0698 22.8316 46.5273L20.8425 25.1451Z" fill="#3088F8"/>
<path d="M18.6274 21.2734C18.6274 18.7882 20.6422 16.7734 23.1274 16.7734H40.8728C43.3581 16.7734 45.3728 18.7882 45.3728 21.2734V22.915C45.3728 23.7434 44.7013 24.415 43.8728 24.415H20.1274C19.299 24.415 18.6274 23.7434 18.6274 22.915V21.2734Z" fill="#03418C"/>
<path d="M32.8638 44.1555L31.3638 44.1555L31.3638 28.8721L32.8638 28.8721L32.8638 44.1555Z" fill="white"/>
<path d="M35.8774 44.1555L34.3774 44.1555L35.8774 28.8721L37.3774 28.8721L35.8774 44.1555Z" fill="white"/>
<path d="M29.8774 44.1555L28.3774 44.1555L26.8774 28.8721L28.3774 28.8721L29.8774 44.1555Z" fill="white"/>
</svg>
