<svg width="40" height="40" viewBox="0 0 40 40" fill="none" xmlns="http://www.w3.org/2000/svg">
<g clip-path="url(#clip0_40008817_82293)">
<path fill-rule="evenodd" clip-rule="evenodd" d="M23.8148 22.4668L35.0001 25.8561L23.8148 28.7907L12.6294 25.4118L23.8148 22.4668Z" fill="#DADBDA"/>
<path fill-rule="evenodd" clip-rule="evenodd" d="M35.0003 32.18V25.8561L23.8149 22.4668V28.7907L35.0003 32.18Z" fill="#EA560F"/>
<path fill-rule="evenodd" clip-rule="evenodd" d="M12.6294 31.7399L23.8148 28.7949L35.0001 32.1842L23.8148 35.1292L12.6294 31.7399Z" fill="#F39600"/>
<path fill-rule="evenodd" clip-rule="evenodd" d="M12.6294 19.0836L23.8148 16.1387L35.0001 19.528L23.8148 22.473L12.6294 19.0836Z" fill="#F39600"/>
<path fill-rule="evenodd" clip-rule="evenodd" d="M12.6294 25.4014L23.8148 22.4668L35.0001 25.8561L23.8148 28.7907L12.6294 25.4014Z" fill="#F39600"/>
<path fill-rule="evenodd" clip-rule="evenodd" d="M23.8148 28.7947V22.4811L12.6294 19.0918V25.4054L23.8148 28.7947Z" fill="#EA560F"/>
<path fill-rule="evenodd" clip-rule="evenodd" d="M5 33.9165L10.2128 32.5215L20.649 35.7351L15.4362 37.1404L5 33.9165Z" fill="#006AB5"/>
<path fill-rule="evenodd" clip-rule="evenodd" d="M10.2129 11.4902C10.2129 12.4926 10.2129 13.4949 10.2129 14.4972C10.2129 20.5215 10.2129 26.4424 10.2129 32.5184L20.649 35.732C20.649 29.6664 20.649 23.7351 20.649 17.7108C20.649 16.7189 20.649 15.7165 20.649 14.7039L10.2129 11.4902Z" fill="#5CA4DB"/>
<g opacity="0.3">
<path fill-rule="evenodd" clip-rule="evenodd" d="M12.3127 14.1769L10.2339 13.5466V11.4902L12.3127 12.1309V14.1769Z" fill="white"/>
</g>
<path fill-rule="evenodd" clip-rule="evenodd" d="M14.4021 14.815L12.3022 14.1847V12.1387L14.4021 12.7587V14.815Z" fill="white"/>
<g opacity="0.3">
<path fill-rule="evenodd" clip-rule="evenodd" d="M16.4912 15.44L14.4019 14.8097V12.7637L16.4912 13.394V15.44Z" fill="white"/>
</g>
<path fill-rule="evenodd" clip-rule="evenodd" d="M18.5806 16.0806L16.4912 15.4503V13.4043L18.5806 14.0243V16.0806Z" fill="white"/>
<g opacity="0.96">
<path fill-rule="evenodd" clip-rule="evenodd" d="M12.3127 16.2316L10.2339 15.6012V13.5449L12.3127 14.1856V16.2316Z" fill="white"/>
</g>
<g opacity="0.41">
<path fill-rule="evenodd" clip-rule="evenodd" d="M12.3127 20.38L10.2339 19.7393V17.6934L12.3127 18.334V20.38Z" fill="white"/>
</g>
<g opacity="0.06">
<path fill-rule="evenodd" clip-rule="evenodd" d="M14.4021 16.8437L12.3022 16.2237V14.1777L14.4021 14.7977V16.8437Z" fill="white"/>
</g>
<g opacity="0.77">
<path fill-rule="evenodd" clip-rule="evenodd" d="M16.4912 17.4869L14.4019 16.8565V14.8105L16.4912 15.4305V17.4869Z" fill="white"/>
</g>
<g opacity="0.06">
<path fill-rule="evenodd" clip-rule="evenodd" d="M18.5806 18.1172L16.4912 17.4972V15.4512L18.5806 16.0712V18.1172Z" fill="white"/>
</g>
<path fill-rule="evenodd" clip-rule="evenodd" d="M12.3127 18.2706L10.2339 17.63V15.584L12.3127 16.2246V18.2706Z" fill="#5CA4DB"/>
<g opacity="0.57">
<path fill-rule="evenodd" clip-rule="evenodd" d="M14.4021 18.8906L12.3022 18.2706V16.2246L14.4021 16.8446V18.8906Z" fill="white"/>
</g>
<path fill-rule="evenodd" clip-rule="evenodd" d="M16.4912 19.5284L14.4019 18.8981V16.8418L16.4912 17.4721V19.5284Z" fill="#5CA4DB"/>
<g opacity="0.33">
<path fill-rule="evenodd" clip-rule="evenodd" d="M16.4705 21.5884L14.3706 20.9581V18.9121L16.4705 19.5424V21.5884Z" fill="white"/>
</g>
<g opacity="0.57">
<path fill-rule="evenodd" clip-rule="evenodd" d="M16.4912 19.544V17.498L18.5806 18.118V20.164" fill="white"/>
</g>
<g opacity="0.05">
<path fill-rule="evenodd" clip-rule="evenodd" d="M18.5806 24.2578L16.4912 23.6378V21.5918L18.5806 22.2118V24.2578Z" fill="white"/>
</g>
<path fill-rule="evenodd" clip-rule="evenodd" d="M12.3127 12.13L10.2339 11.4893V9.44336L12.3127 10.084V12.13Z" fill="white"/>
<g opacity="0.62">
<path fill-rule="evenodd" clip-rule="evenodd" d="M14.4021 12.7525L12.3022 12.1325V10.0762L14.4021 10.7065V12.7525Z" fill="#5CA4DB"/>
</g>
<path fill-rule="evenodd" clip-rule="evenodd" d="M16.4912 13.3956L14.4019 12.7653V10.709L16.4912 11.3393V13.3956Z" fill="white"/>
<g opacity="0.54">
<path fill-rule="evenodd" clip-rule="evenodd" d="M18.5806 14.0259L16.4912 13.4059V11.3496L18.5806 11.9799V14.0259Z" fill="#5CA4DB"/>
</g>
<g opacity="0.38">
<path fill-rule="evenodd" clip-rule="evenodd" d="M12.3127 10.0753L10.2339 9.44499V7.38867L12.3127 8.02933V10.0753Z" fill="#5CA4DB"/>
</g>
<path fill-rule="evenodd" clip-rule="evenodd" d="M14.4021 10.7134L12.3022 10.0831V8.03711L14.4021 8.6571V10.7134Z" fill="white"/>
<g opacity="0.41">
<path fill-rule="evenodd" clip-rule="evenodd" d="M16.4912 11.3384L14.4019 10.7081V8.66211L16.4912 9.29244V11.3384Z" fill="#5CA4DB"/>
</g>
<path fill-rule="evenodd" clip-rule="evenodd" d="M18.5806 11.979L16.4912 11.3487V9.30273L18.5806 9.92273V11.979Z" fill="white"/>
<path fill-rule="evenodd" clip-rule="evenodd" d="M12.3127 8.02844L10.2339 7.38778V5.3418L12.3127 5.97212V8.02844Z" fill="white"/>
<g opacity="0.26">
<path fill-rule="evenodd" clip-rule="evenodd" d="M14.4021 8.65092L12.3022 8.03093V5.97461L14.4021 6.60494V8.65092Z" fill="#5CA4DB"/>
</g>
<g opacity="0.35">
<path fill-rule="evenodd" clip-rule="evenodd" d="M16.7868 6.86561L14.6025 6.65895L14.1909 4.6543L16.3752 4.85063L16.7868 6.86561Z" fill="#5CA4DB"/>
</g>
<g opacity="0.26">
<path fill-rule="evenodd" clip-rule="evenodd" d="M11.5739 4.78974L9.37906 4.88274L8.68262 2.96075L10.8775 2.85742L11.5739 4.78974Z" fill="#5CA4DB"/>
</g>
<path fill-rule="evenodd" clip-rule="evenodd" d="M16.4912 9.28373L14.4019 8.66374V6.60742L16.4912 7.23775V9.28373Z" fill="white"/>
<g opacity="0.12">
<path fill-rule="evenodd" clip-rule="evenodd" d="M18.5806 9.92436L16.4912 9.30436V7.24805L18.5806 7.87838V9.92436Z" fill="#5CA4DB"/>
</g>
<g opacity="0.18">
<path fill-rule="evenodd" clip-rule="evenodd" d="M20.6491 16.7212L18.5703 16.0909V14.0449L20.6491 14.6649V16.7212Z" fill="white"/>
</g>
<g opacity="0.62">
<path fill-rule="evenodd" clip-rule="evenodd" d="M20.6491 18.7681L18.5703 18.1378V16.0918L20.6491 16.7118V18.7681Z" fill="white"/>
</g>
<g opacity="0.04">
<path fill-rule="evenodd" clip-rule="evenodd" d="M18.5703 20.1847V18.1387L20.6491 18.7587V20.8047" fill="white"/>
</g>
<g opacity="0.38">
<path fill-rule="evenodd" clip-rule="evenodd" d="M20.6491 24.9087L18.5703 24.2784V22.2324L20.6491 22.8524V24.9087Z" fill="white"/>
</g>
<path fill-rule="evenodd" clip-rule="evenodd" d="M20.6491 14.664L18.5703 14.044V11.998L20.6491 12.618V14.664Z" fill="white"/>
<g opacity="0.31">
<path fill-rule="evenodd" clip-rule="evenodd" d="M20.6491 12.6197L18.5703 11.9893V9.94336L20.6491 10.5634V12.6197Z" fill="#5CA4DB"/>
</g>
<path fill-rule="evenodd" clip-rule="evenodd" d="M20.6491 10.5625L18.5703 9.94247V7.89648L20.6491 8.51648V10.5625Z" fill="white"/>
<g opacity="0.45">
<path d="M10.3394 30.6777C10.2656 30.657 10.2128 30.6364 10.2023 30.6157C10.1917 30.595 10.1812 30.5434 10.1812 30.4607V26.4204C10.1812 26.3377 10.1917 26.2964 10.2023 26.2861C10.2128 26.2758 10.255 26.2758 10.3289 26.2964L12.3866 26.7821C12.4288 26.7924 12.4499 26.8027 12.4604 26.8234C12.471 26.8441 12.471 26.8647 12.471 26.8957V27.3401C12.471 27.3814 12.4604 27.4021 12.4499 27.4124C12.4393 27.4227 12.4182 27.4227 12.376 27.4124L10.8143 27.0404V28.2287L12.3022 28.6214C12.3549 28.6317 12.3866 28.6731 12.3866 28.7351V29.1794C12.3866 29.2517 12.3549 29.2724 12.3022 29.2517L10.8143 28.8487V30.1817L12.4393 30.657C12.4921 30.6674 12.5237 30.7087 12.5237 30.781V31.2254C12.5237 31.2874 12.4921 31.308 12.4393 31.2977L10.3394 30.6777Z" fill="white"/>
<path d="M15.9955 31.8335C15.89 31.8955 15.7739 31.9368 15.6473 31.9678C15.5207 31.9988 15.373 32.0091 15.2252 32.0091C15.0775 32.0091 14.9192 31.9988 14.7609 31.9678C14.6026 31.9368 14.4444 31.9058 14.2861 31.8541L13.5896 31.6475C13.5263 31.6268 13.4841 31.6061 13.4736 31.5855C13.4419 31.5752 13.4419 31.5338 13.4419 31.4718L13.463 27.1939C13.463 27.1215 13.4736 27.0699 13.4841 27.0595C13.4947 27.0492 13.5369 27.0492 13.6107 27.0699L14.5921 27.3075C15.3413 27.4832 15.9006 27.8448 16.2593 28.3925C16.4176 28.6302 16.5337 28.8988 16.6181 29.1882C16.692 29.4775 16.7342 29.8082 16.7236 30.1905C16.7236 30.5832 16.6498 30.9242 16.5231 31.2135C16.4071 31.4925 16.2277 31.7095 15.9955 31.8335ZM15.7634 28.7438C15.5207 28.3512 15.1197 28.0928 14.5815 27.9585L14.1278 27.8448L14.1067 31.1515L14.3705 31.2238C14.5921 31.2858 14.8031 31.3168 14.9931 31.3168C15.1936 31.3168 15.3624 31.2652 15.5101 31.1722C15.679 31.0792 15.8161 30.9345 15.9111 30.7382C16.0061 30.5418 16.0588 30.2938 16.0588 29.9735C16.0588 29.7255 16.0377 29.4878 15.9955 29.2812C15.9533 29.0952 15.8795 28.9092 15.7634 28.7438Z" fill="white"/>
<path d="M20.5859 33.7139C20.4699 33.7139 20.3432 33.7035 20.185 33.6932C20.0267 33.6725 19.8473 33.6312 19.6362 33.5795C19.3091 33.4762 19.0137 33.3315 18.7499 33.1249C18.4861 32.9182 18.2645 32.6805 18.0745 32.4119C17.8846 32.1329 17.7474 31.8332 17.6419 31.4922C17.5469 31.1512 17.4941 30.7999 17.4941 30.4279C17.4941 30.0559 17.5575 29.7356 17.6524 29.4462C17.7579 29.1672 17.9057 28.9399 18.0956 28.7642C18.2856 28.5886 18.5177 28.4749 18.7921 28.4129C19.0664 28.3509 19.3619 28.3612 19.689 28.4439C19.8684 28.4852 20.0372 28.5369 20.1955 28.5989C20.3643 28.6609 20.5121 28.7229 20.6493 28.8056C20.6915 28.8262 20.7126 28.8469 20.7231 28.8676C20.7337 28.8882 20.7337 28.9192 20.7231 28.9606L20.702 29.4566C20.702 29.5289 20.6915 29.5599 20.6704 29.5599C20.6493 29.5496 20.6176 29.5392 20.5754 29.5082C20.2905 29.3326 19.9845 29.2086 19.6785 29.1362C19.4358 29.0742 19.2247 29.0742 19.0348 29.1156C18.8448 29.1672 18.6865 29.2499 18.5599 29.3842C18.4227 29.5186 18.3278 29.6839 18.2539 29.9009C18.18 30.1076 18.1484 30.3452 18.1484 30.6242C18.1484 30.8929 18.18 31.1512 18.2539 31.3992C18.3278 31.6472 18.4227 31.8745 18.5599 32.0709C18.6865 32.2775 18.8448 32.4532 19.0242 32.5979C19.2036 32.7529 19.4041 32.8562 19.6257 32.9182C19.8262 32.9802 19.995 33.0215 20.1322 33.0422C20.2694 33.0629 20.4066 33.0732 20.5226 33.0525C20.5754 33.0422 20.607 33.0525 20.6176 33.0629C20.6282 33.0732 20.6387 33.0939 20.6387 33.1249L20.6598 33.6002C20.6598 33.6519 20.6598 33.6829 20.6493 33.7035C20.6598 33.7035 20.6282 33.7139 20.5859 33.7139Z" fill="white"/>
</g>
</g>
<defs>
<clipPath id="clip0_40008817_82293">
<rect width="30" height="34.2857" fill="white" transform="translate(5 2.85742)"/>
</clipPath>
</defs>
</svg>
