<svg width="132" height="30" viewBox="0 0 132 30" fill="none" xmlns="http://www.w3.org/2000/svg">
<g clip-path="url(#clip0_40008299_77513)">
<path d="M25.5046 24.1955C25.5046 23.076 24.6066 22.1691 23.4983 22.1691C22.3882 22.1691 21.4917 23.076 21.4917 24.1955C21.4917 24.2689 21.4949 24.3416 21.503 24.4133C22.809 24.5088 24.112 24.6406 25.4107 24.8086C25.4734 24.6104 25.5051 24.4035 25.5046 24.1955Z" fill="#008C44"/>
<path d="M25.4107 24.8088C25.1519 25.6275 24.3945 26.2212 23.4982 26.2212C22.4625 26.2212 21.6116 25.4291 21.503 24.4136C9.18123 23.5115 3.05176e-05 26.0317 3.05176e-05 26.0317C17.8283 29.8715 32.1484 26.0317 32.1484 26.0317C29.8508 25.4888 27.5952 25.0921 25.4107 24.8088Z" fill="#008C44"/>
<path d="M25.4107 24.8083C25.1519 25.6271 24.3945 26.2207 23.4982 26.2207C22.4625 26.2207 21.6116 25.4286 21.503 24.4131C22.8089 24.5085 24.112 24.6403 25.4107 24.8083Z" fill="white"/>
<path d="M12.8381 15.9731L12.8349 15.9757L12.8269 15.9805L12.8123 15.9871C12.8123 15.9879 12.7507 16.0352 12.7119 16.0662C13.0712 16.2629 13.3074 16.5903 13.3462 16.9569L13.4256 17.7179C13.4256 17.7194 13.4466 18.0077 13.4578 18.127C13.9789 17.7529 14.131 17.5963 14.1326 17.5946L14.1488 17.5783C14.3431 17.4102 14.4497 17.1783 14.4497 16.9243C14.4497 16.6746 14.3494 16.4214 14.1634 16.1912C13.5597 15.4507 12.8673 15.9519 12.8381 15.9731Z" fill="#005BAB"/>
<path d="M7.04525 11.5532C7.02593 11.5753 5.41266 13.5649 5.36889 16.3319C5.36889 16.3319 5.36252 16.4511 5.36252 16.6062C5.36252 17.2119 5.59878 18.7689 7.89968 20.2132C7.90941 20.2197 8.78149 20.8011 10.3139 19.9503C10.3139 19.9503 11.3867 19.3601 11.4174 19.3428C11.4142 19.3021 11.3009 18.3583 11.3009 18.3583L11.2815 18.1884C11.2815 18.182 11.2848 18.1509 11.2848 18.1509C11.2848 18.1509 11.1941 17.2919 11.1731 17.0879C9.79613 17.8832 8.77021 18.1794 8.38501 17.8358C8.3722 17.8292 7.13908 16.7221 7.66496 15.3448C7.67315 15.3163 8.68282 12.2171 10.5597 12.2766C10.8155 12.2921 11.1196 12.3631 11.2686 12.3428C11.5727 12.301 11.864 12.1484 11.9966 11.6177C12.0209 11.5215 12.0502 11.3695 12.0502 11.1988C12.0502 10.8462 11.9222 10.3751 11.3203 10.14C11.3268 10.1384 11.1666 10.0796 10.8916 10.0363C10.8688 10.0314 8.71839 9.5931 7.04525 11.5532Z" fill="#005BAB"/>
<path d="M12.317 16.0272C11.9513 16.0615 11.6179 16.2313 11.4044 16.4951C11.2641 16.6631 11.1812 16.8724 11.1682 17.0918C11.7686 16.73 12.3285 16.352 12.749 16.0565C12.6341 16.0125 12.4626 16.0141 12.317 16.0272Z" fill="#ED1C24"/>
<path d="M11.1682 17.0894C11.1714 17.1262 11.2911 18.2822 11.2911 18.2822V18.3181L11.3058 18.4519C11.3058 18.4519 11.3882 19.1631 11.411 19.3477C12.1941 18.9003 12.8899 18.4863 13.4723 18.1197V18.119C13.4691 18.0829 13.4175 17.5636 13.4175 17.5636L13.4206 17.5654C13.4206 17.5588 13.4175 17.5531 13.4158 17.5466C13.4158 17.5458 13.3397 16.8085 13.3397 16.8085C13.3041 16.4812 13.0063 16.1187 12.741 16.0509C12.3608 16.3237 11.7847 16.7196 11.1682 17.0894Z" fill="#542785"/>
<path d="M18.3834 15.4966C18.1034 15.6443 17.8931 15.8917 17.809 16.1743C17.7377 16.4076 17.7572 16.6478 17.8671 16.851C17.8671 16.851 18.1989 17.3891 18.3494 17.6789C18.5209 18.0038 18.9318 18.7794 18.9545 19.3949C18.9771 19.9166 18.7216 20.2359 18.5824 20.3315C18.4432 20.4269 18.0015 20.7102 17.4416 20.8792C15.4724 21.4729 14.2978 20.369 14.2815 20.3543C13.8318 19.9796 13.589 18.835 13.4788 18.1009C12.8866 18.4716 12.1909 18.8807 11.4175 19.3214C11.6019 20.6254 12.1746 21.2752 12.1796 21.2802C13.398 22.7751 14.9788 23.1441 15.0031 23.1491C15.8899 23.2397 16.33 23.1458 16.3333 23.1449C17.0582 23.0568 18.5661 22.4249 19.071 22.0974C19.8235 21.6746 21.0921 21.0002 21.1827 20.0947L21.2004 19.7355C21.2004 18.9354 20.9513 18.2757 20.9513 18.27L20.9611 18.2837L20.9253 18.2168L20.7329 17.7776C20.453 17.1295 19.8316 15.8785 19.8057 15.8256C19.5565 15.3618 18.919 15.214 18.3834 15.4966Z" fill="#ED1C24"/>
<path d="M22.4416 10.6248C22.4416 10.6248 22.3397 10.8216 22.3137 10.8706C22.8122 11.0054 23.2457 11.2838 23.6147 11.683C23.6212 11.6878 24.5176 12.4936 24.5176 13.8172C24.5176 14.3724 24.3574 14.9389 24.0387 15.5005C24.0031 15.575 23.1228 17.3728 21.7377 17.7483C21.728 17.7507 20.8186 17.9728 20.5273 17.9841C20.474 17.9861 20.4214 17.9974 20.372 18.0176C20.1099 18.1206 19.9254 18.4887 19.9254 18.9109C19.9254 19.0586 19.948 19.2023 19.9903 19.3387C20.1164 19.7379 20.4206 20.0334 20.7829 20.1102C20.9351 20.1412 21.0807 20.1338 21.2232 20.0866C21.2247 20.0857 21.2458 20.0807 21.2458 20.0807C21.6309 19.9853 22.9124 19.6636 23.1779 19.5288C23.3153 19.4717 24.5241 18.9533 25.2555 17.8487L25.7085 17.1505C26.3298 16.2215 26.8526 14.5552 26.8526 13.2277C26.8526 13.0162 26.8379 12.8186 26.8057 12.6406C26.7992 12.6105 26.084 9.5586 23.3299 8.61561C23.2457 9.03521 22.5937 10.3113 22.4416 10.6248Z" fill="#F5821F"/>
<path d="M19.5663 9.0705C19.2717 9.23868 19.1068 9.55871 19.1068 9.95378C19.1068 10.1531 19.126 10.2641 19.1876 10.4877C19.343 11.056 20.0646 11.2944 20.2846 11.1091C20.1715 10.9033 20.1293 10.7491 20.1293 10.5327C20.1293 10.3466 20.1715 10.1694 20.2523 10.0085C20.2523 10.0078 20.5921 9.38876 20.5921 9.38876C20.7619 9.08428 20.9658 8.72015 21.0905 8.47927C20.5889 8.63197 19.8769 8.85328 19.5663 9.0705Z" fill="#F5821F"/>
<path d="M18.6165 2.30449L18.6099 2.3052C18.5954 2.30605 16.864 2.57951 15.0582 3.85165C14.741 4.07522 14.0258 4.67034 14.22 5.36354C14.3138 5.69509 14.453 5.90079 14.6504 5.99223C14.8737 6.09759 15.1876 6.05604 15.589 5.87147C15.589 5.87147 16.0113 5.60853 17.9935 4.53976C18.0063 4.53326 19.2992 3.85561 19.974 5.00762C19.974 5.00762 20.1537 5.28935 20.9222 6.50164C20.9351 6.5246 21.3915 7.2578 21.1747 7.99099C21.1228 8.1697 21.0678 8.33307 21.0128 8.51262C21.5403 8.37617 21.8138 8.37617 21.8995 8.40811C22.3557 8.386 22.7442 8.50768 23.1196 8.62533L23.3381 8.68652C23.4432 8.3101 23.5031 7.8055 23.5031 7.46272C23.5031 6.98172 23.3899 6.53358 23.2232 6.23955C23.1747 6.15313 22.0484 4.16836 21.6212 3.5454C21.5823 3.47933 20.7313 1.99499 18.6165 2.30449Z" fill="#D8098C"/>
<path d="M21.9626 10.7008C21.9611 10.7008 21.6907 10.7139 21.6907 10.7139C21.0792 10.7636 20.5419 10.9604 20.1842 11.1245C20.3251 11.3148 20.44 11.3866 20.5727 11.4601C20.7701 11.5679 20.9805 11.6086 21.1973 11.6193L21.194 11.6201C21.2102 11.6184 21.2587 11.616 21.4334 11.6086L21.4562 11.607C21.8024 11.5532 22.152 11.3474 22.3365 10.9644C22.3365 10.9644 22.4012 10.8502 22.4463 10.7384C22.2733 10.713 22.1131 10.6999 21.9626 10.7008Z" fill="#D8098C"/>
<path d="M21.9868 8.34495H21.974C21.9708 8.34495 21.5079 8.33117 21.016 8.5009C20.9253 8.71572 20.6067 9.31331 20.3138 9.86031L20.1327 10.1991C20.0646 10.3241 20.0323 10.4604 20.0323 10.6049C20.0323 10.7862 20.0921 10.9724 20.2005 11.1445C20.5339 10.9927 21.042 10.8075 21.6244 10.7608C21.6276 10.7608 21.9383 10.7396 22.372 10.8875C22.393 10.8482 22.5792 10.4874 22.5792 10.4874C22.5855 10.4751 23.2312 9.26427 23.3493 8.62428C23.016 8.46833 22.4593 8.31732 21.9868 8.34495Z" fill="#A62A57"/>
<path d="M17.2491 12.6996C17.5307 12.5159 17.7151 12.2392 17.7151 11.9264C17.7151 11.5573 17.4626 11.2389 17.0954 11.0659C17.3203 10.9189 17.4691 10.6969 17.4691 10.4453C17.4691 10.1456 17.2619 9.88865 16.9611 9.75064C17.1488 9.63299 17.2717 9.45096 17.2717 9.24449C17.2717 8.99533 17.0922 8.78073 16.8349 8.67445C16.9934 8.58302 17.1003 8.43363 17.1003 8.2639C17.1003 7.98542 16.8187 7.75923 16.4725 7.75923C16.1261 7.75923 15.8445 7.98542 15.8445 8.2639C15.8445 8.43363 15.9497 8.58302 16.1098 8.67445C15.851 8.78073 15.6731 8.99533 15.6731 9.24449C15.6731 9.45096 15.796 9.63299 15.9837 9.75064C15.6828 9.8878 15.4756 10.1456 15.4756 10.4453C15.4756 10.6969 15.6228 10.9189 15.8478 11.0659C15.4806 11.2398 15.2297 11.5573 15.2297 11.9264C15.2297 12.2392 15.4126 12.5159 15.6941 12.6996C15.2248 12.9175 14.906 13.32 14.906 13.787C14.906 14.4827 15.6067 15.0469 16.4725 15.0469C17.3365 15.0469 18.0388 14.4827 18.0388 13.787C18.0388 13.32 17.7184 12.9175 17.2491 12.6996Z" fill="#F5821F"/>
<path d="M9.08085 3.49171C7.65371 4.17177 7.06628 6.06842 7.06152 6.08793C6.78149 6.85129 6.72491 7.82531 6.72491 8.50953C6.72491 8.96665 6.95144 9.87445 6.99023 10.0999C7.19267 11.2936 8.14877 11.1433 8.14877 11.1433C8.34953 11.1335 8.49518 11.0894 8.68613 10.9751C9.07434 10.7416 9.3106 10.4101 9.27678 9.93176C9.25885 9.72832 9.01125 8.75191 9.01125 8.5544C9.01125 7.54774 9.23302 6.9681 9.24275 6.94358C9.51458 6.28387 9.91252 5.93522 10.4336 5.90745C11.6763 5.84054 13.1392 7.69387 13.1487 7.71267C13.3106 7.99023 13.5113 8.15014 13.7411 8.18625C14.1649 8.25232 14.5761 7.88813 14.5808 7.8848C14.5889 7.8776 14.5938 7.87428 14.5938 7.87428C14.8559 7.69628 15.0371 7.42769 15.0922 7.13783L15.1099 6.96068C15.1099 6.78197 15.0581 6.61288 14.9611 6.47092C14.9578 6.4676 14.9287 6.43 14.7346 6.17364C12.8931 3.87301 11.4596 3.53899 11.445 3.53574L11.432 3.53326L11.424 3.53001C10.5663 3.17239 9.7799 3.16016 9.08085 3.49171Z" fill="#008C44"/>
<path d="M24.8153 23.5197C24.7572 23.7197 24.5434 23.6928 24.2619 23.6079C23.9771 23.5239 23.7313 23.4152 23.7894 23.2144C23.8477 23.0135 24.1876 22.7972 24.4723 22.8812C24.7555 22.9652 24.8736 23.3189 24.8153 23.5197Z" fill="white"/>
</g>
<path d="M41.7032 7.95281C43.8517 7.95814 45.0726 8.49659 45.0832 9.47754C45.0726 10.4691 43.8517 10.9863 41.7032 10.9809C39.5228 10.9863 38.3019 10.4691 38.3019 9.47754C38.3019 8.49659 39.5228 7.95814 41.7032 7.95281ZM37.289 7.57962V6.52404H41.0315V6.0229C39.3682 5.92694 38.4405 5.46312 38.4512 4.65811C38.4405 3.73581 39.6241 3.26133 41.7139 3.26133C43.8144 3.26133 44.9713 3.73581 44.9766 4.65811C44.9713 5.46312 44.065 5.92694 42.3963 6.0229V6.52404H46.1388V7.57962H37.289ZM37.7155 2.99477V1.97117H41.0315V1.20347H42.3963V1.97117H45.6803V2.99477H37.7155ZM39.6987 9.47754C39.6934 9.84539 40.3225 10 41.7032 9.98934C43.068 10 43.7025 9.84539 43.7078 9.47754C43.7025 9.11502 43.068 8.94975 41.7032 8.94442C40.3225 8.94975 39.6934 9.11502 39.6987 9.47754ZM39.9013 4.65811C39.9013 4.96732 40.4877 5.11659 41.7139 5.11659C42.9508 5.11659 43.5159 4.96732 43.5159 4.65811C43.5159 4.31691 42.9508 4.17297 41.7139 4.1783C40.4877 4.17297 39.9013 4.31691 39.9013 4.65811ZM50.2972 3.55988C50.3025 4.65278 51.0116 5.767 52.5896 6.24681L51.9392 7.3024C50.8516 6.98786 50.0839 6.32145 49.6468 5.47912C49.2149 6.39076 48.4472 7.11047 47.3224 7.46234L46.6613 6.39609C48.2393 5.92161 48.9431 4.74341 48.9431 3.55988V3.48524H46.9918V2.41899H48.9431V1.34208H50.3185V2.41899H52.2591V3.48524H50.2972V3.55988ZM48.4632 10.8103V7.86751H49.828V9.72278H55.1379V10.8103H48.4632ZM51.9392 5.21256V4.11432H53.5492V1.28877H54.9034V8.48593H53.5492V5.21256H51.9392ZM63.9878 1.72593V2.56827C63.9931 3.37861 63.9931 4.25294 63.7852 5.39382H65.0434V6.47073H61.3328V8.53924H59.9787V6.47073H56.1615V5.39382H62.4044C62.607 4.35956 62.6283 3.55988 62.6336 2.8135H57.2491V1.72593H63.9878ZM57.1958 10.8103V7.66492H58.5499V9.72278H64.1371V10.8103H57.1958Z" fill="#454C53"/>
<path d="M48.5734 15.3708V28.3079H46.8532V21.8109H45.6021V27.6824H43.9388V15.5841H45.6021V20.3608H46.8532V15.3708H48.5734ZM37.7546 25.3793V16.8636H42.574V18.3279H39.5743V23.8581C40.8254 23.8368 41.9343 23.7657 43.1853 23.5454L43.3133 25.0239C41.7352 25.3224 40.3562 25.3722 38.6502 25.3793H37.7546ZM57.1887 16.565V18.0009H49.9951V16.565H52.7815V15.2571H54.587V16.565H57.1887ZM50.6348 20.8584C50.6206 19.4225 51.8788 18.4345 53.663 18.4274C55.44 18.4345 56.7195 19.4225 56.7338 20.8584C56.7195 22.3085 55.44 23.2681 53.663 23.261C51.8788 23.2681 50.6206 22.3085 50.6348 20.8584ZM52.0138 26.0475C52.0067 24.6116 53.7127 23.7657 56.4779 23.7728C59.2288 23.7657 60.9348 24.6116 60.9419 26.0475C60.9348 27.4549 59.2288 28.315 56.4779 28.3079C53.7127 28.315 52.0067 27.4549 52.0138 26.0475ZM52.3266 20.8584C52.3195 21.555 52.8455 21.9247 53.663 21.9247C54.4733 21.9247 55.042 21.555 55.042 20.8584C55.042 20.1689 54.4733 19.7851 53.663 19.778C52.8455 19.7851 52.3195 20.1689 52.3266 20.8584ZM53.9189 26.0475C53.9189 26.6375 54.8216 26.9431 56.4779 26.9431C58.0985 26.9431 58.9942 26.6375 58.9942 26.0475C58.9942 25.4291 58.0985 25.1518 56.4779 25.1376C54.8216 25.1518 53.9189 25.4291 53.9189 26.0475ZM57.3024 22.2517V20.8016H59.0653V19.6642H57.3309V18.2141H59.0653V15.3708H60.8708V23.6164H59.0653V22.2517H57.3024ZM70.0405 17.6739C70.0405 19.0742 70.7655 20.4533 72.4858 21.1143L71.519 22.4933C70.4101 22.0739 69.6495 21.3062 69.1875 20.3537C68.7184 21.4697 67.908 22.4009 66.6996 22.9056L65.7187 21.5124C67.5455 20.7091 68.2776 19.1169 68.2776 17.6739V16.1527H70.0405V17.6739ZM68.1213 25.8911C68.1142 24.377 69.8557 23.4672 72.5995 23.4743C75.3291 23.4672 77.0777 24.377 77.0919 25.8911C77.0777 27.391 75.3291 28.315 72.5995 28.3079C69.8557 28.315 68.1142 27.391 68.1213 25.8911ZM69.941 25.8911C69.9268 26.5877 70.9006 26.9431 72.5995 26.9431C74.2842 26.9431 75.258 26.5877 75.258 25.8911C75.258 25.1874 74.2842 24.8249 72.5995 24.8249C70.9006 24.8249 69.9268 25.1874 69.941 25.8911ZM72.5284 22.8914V15.6125H74.2202V18.5411H75.3006V15.385H77.0209V23.2895H75.3006V20.0054H74.2202V22.8914H72.5284ZM88.8349 15.3708V18.4274H90.484V19.9343H88.8349V22.9909H87.0151V15.3708H88.8349ZM78.343 21.5977C79.2884 21.5977 80.3618 21.5977 81.4849 21.5764V21.0077C80.0703 20.83 79.2031 20.2471 79.2102 19.323C79.2031 18.271 80.4471 17.6526 82.3805 17.6597C84.2998 17.6526 85.5437 18.271 85.5508 19.323C85.5437 20.24 84.6836 20.8229 83.2904 21.0006V21.5124C84.3566 21.4555 85.4158 21.3702 86.418 21.2423L86.546 22.3654C83.788 22.8274 80.7883 22.8487 78.5278 22.8487L78.343 21.5977ZM78.6842 17.3896V16.1812H81.4849V15.2571H83.2904V16.1812H86.0911V17.3896H78.6842ZM80.0632 24.6543V23.4458H88.8349V26.346H81.8972V27.0142H89.2614V28.2226H80.0774V25.2514H87.0151V24.6543H80.0632ZM80.9446 19.323C80.9375 19.714 81.4564 19.913 82.3805 19.9201C83.2904 19.913 83.8093 19.714 83.8164 19.323C83.8093 18.9463 83.2904 18.7828 82.3805 18.7828C81.4564 18.7828 80.9375 18.9463 80.9446 19.323ZM105.738 15.3708V28.3079H103.99V15.3708H105.738ZM94.2798 23.915C94.6068 23.915 94.9693 23.915 95.3603 23.9079V18.271H94.5215V16.8067H100.45V18.271H99.6253V23.7586C99.9807 23.7302 100.322 23.6946 100.635 23.6591L100.763 25.0097C98.7794 25.358 96.1493 25.4006 94.4789 25.4077L94.2798 23.915ZM96.9668 23.8866C97.308 23.8723 97.6492 23.8652 97.9904 23.851V18.271H96.9668V23.8866ZM100.165 22.9909V21.5124H101.431V20.4177H100.165V18.9392H101.431V15.6267H103.123V27.6966H101.431V22.9909H100.165ZM117.879 15.3708V28.3079H116.045V15.3708H117.879ZM107.046 24.64C110.387 23.062 111.859 21.0148 112.15 18.1431H107.743V16.7214H113.998C113.991 20.6452 112.619 23.9079 107.999 26.0901L107.046 24.64ZM131.385 20.503V21.9389H126.381V22.7635H129.949V26.0759H122.741V26.8578H130.29V28.2226H120.964V24.7964H128.158V24.1282H120.95V22.7635H124.561V21.9389H119.585V20.503H131.385ZM121.05 19.8206V15.7404H129.892V19.8206H121.05ZM122.827 18.4274H128.087V17.1479H122.827V18.4274Z" fill="#1B1D1F"/>
<defs>
<clipPath id="clip0_40008299_77513">
<rect width="32.1485" height="25.4762" fill="white" transform="translate(0 2.26172)"/>
</clipPath>
</defs>
</svg>
