<svg width="72" height="72" viewBox="0 0 72 72" fill="none" xmlns="http://www.w3.org/2000/svg">
<rect x="16" y="49" width="40" height="10" fill="#2F6DB2"/>
<path d="M11 29C11 24.5817 14.5817 21 19 21H53C57.4183 21 61 24.5817 61 29V49H11V29Z" fill="#3C8BE4"/>
<path d="M16 59H22V63C22 64.1046 21.1046 65 20 65H18C16.8954 65 16 64.1046 16 63V59Z" fill="#B98355"/>
<path d="M50 59H56V63C56 64.1046 55.1046 65 54 65H52C50.8954 65 50 64.1046 50 63V59Z" fill="#B98355"/>
<path d="M10 33C13.3137 33 16 35.6863 16 39V59H14C9.58172 59 6 55.4183 6 51V43.4707C4.77294 42.3721 4 40.7766 4 39C4 35.6863 6.68629 33 10 33Z" fill="#2F6DB2"/>
<path d="M62 33C58.6863 33 56 35.6863 56 39V59H58C62.4183 59 66 55.4183 66 51V43.4707C67.2271 42.3721 68 40.7766 68 39C68 35.6863 65.3137 33 62 33Z" fill="#2F6DB2"/>
<path d="M16 43C16 40.7909 17.7909 39 20 39H32C34.2091 39 36 40.7909 36 43V49H16V43Z" fill="#68ADFC"/>
<path d="M36 43C36 40.7909 37.7909 39 40 39H52C54.2091 39 56 40.7909 56 43V49H36V43Z" fill="#68ADFC"/>
<path d="M27 10.0833C27 8.93274 27.9327 8 29.0833 8H43.8463C44.9969 8 45.9296 8.93274 45.9296 10.0833V32.6408C45.9296 33.7914 44.9969 34.7241 43.8463 34.7241H29.0833C27.9327 34.7241 27 33.7914 27 32.6408V10.0833Z" fill="#D9DFE6"/>
<rect x="29.7842" y="11.8906" width="5.56753" height="5.56753" rx="1.04167" fill="#96A5B5"/>
<rect x="29.7842" y="22.4766" width="12.2486" height="1.67026" rx="0.520833" fill="#96A5B5"/>
<rect x="29.7842" y="25.2578" width="12.2486" height="1.67026" rx="0.520833" fill="#96A5B5"/>
<rect x="29.7842" y="28.0469" width="5.56753" height="1.67026" rx="0.520833" fill="#96A5B5"/>
</svg>
